<svg width="128" height="127" viewBox="0 0 128 127" fill="none" xmlns="http://www.w3.org/2000/svg">
<path d="M125.371 16.1423H66.5891V110.328H125.371V16.1423Z" fill="white"/>
<path d="M113.991 90.3459H93.522V99.1689H113.991V90.3459Z" fill="#0080FF"/>
<path d="M113.991 74.4634H93.522V83.2863H113.991V74.4634Z" fill="#0080FF"/>
<path d="M113.991 58.5811H93.522V67.404H113.991V58.5811Z" fill="#0080FF"/>
<path d="M113.991 42.699H93.522V51.5219H113.991V42.699Z" fill="#0080FF"/>
<path d="M113.991 26.8164H93.522V35.6393H113.991V26.8164Z" fill="#0080FF"/>
<path d="M87.0585 90.3459H66.5891V99.1689H87.0585V90.3459Z" fill="#0080FF"/>
<path d="M87.0585 74.4634H66.5891V83.2863H87.0585V74.4634Z" fill="#0080FF"/>
<path d="M87.0585 58.5811H66.5891V67.404H87.0585V58.5811Z" fill="#0080FF"/>
<path d="M87.0585 42.699H66.5891V51.5219H87.0585V42.699Z" fill="#0080FF"/>
<path d="M87.0585 26.8164H66.5891V35.6393H87.0585V26.8164Z" fill="#0080FF"/>
<path d="M121.05 13.1592H66.5891V18.5928H121.049C121.886 18.5928 122.568 19.2734 122.568 20.1119V106.228C122.568 107.065 121.886 107.747 121.049 107.747H66.5891V113.181H121.049C124.882 113.181 128 110.063 128 106.229V20.1106C128.001 16.277 124.884 13.1592 121.05 13.1592Z" fill="#0080FF"/>
<path d="M2.27243 11.8617L73.6629 0.0424203C75.4006 -0.245196 76.8224 0.960632 76.8224 2.72279V123.615C76.8224 125.377 75.4006 126.583 73.6629 126.295L2.27243 114.477C1.02212 114.269 0 113.064 0 111.797V14.5421C0 13.2755 1.02212 12.0696 2.27243 11.8617Z" fill="#0080FF"/>
<path d="M50.5552 51.4069C49.8044 51.4069 49.5573 50.3955 50.2297 50.0607C51.5827 49.3855 52.8451 48.4835 53.9118 47.279C56.5528 44.2962 57.4886 39.9941 56.6946 34.4902C56.588 33.7502 55.9047 33.2385 55.1635 33.3384C54.4235 33.441 53.9051 34.1229 54.0036 34.8642C54.0441 35.1654 54.8961 42.2964 46.5787 45.2306C45.7537 45.5209 41.8746 45.8342 37.0407 45.8342C32.2069 45.8342 28.3277 45.5209 27.5028 45.2306C19.2623 42.3234 20.0387 35.1802 20.0792 34.8602C20.1751 34.1216 19.6579 33.4424 18.9194 33.3397C18.1781 33.2412 17.4949 33.7516 17.3882 34.4916C16.5943 39.9941 17.5313 44.2962 20.171 47.2804C21.0743 48.3012 22.1194 49.1046 23.2401 49.7366C24.034 50.1849 23.6816 51.4083 22.7702 51.4083H7.49512C7.49512 65.7297 21.4524 60.2906 21.4524 60.2906C21.4524 60.2906 26.166 83.3134 26.166 89.1144C26.166 93.2666 28.8192 96.3291 37.0421 96.3291C45.265 96.3291 47.9182 93.2666 47.9182 89.1144C47.9182 83.3134 52.6318 60.2906 52.6318 60.2906C52.6318 60.2906 66.5891 65.7297 66.5891 51.4083L50.5552 51.4069ZM42.6617 91.4693C42.4714 91.5017 42.2688 91.5584 42.0622 91.6246C41.1441 90.5471 39.2511 89.8003 37.0421 89.8003C34.8331 89.8003 32.9401 90.5471 32.022 91.6246C31.8154 91.5571 31.6128 91.5004 31.4225 91.4693C29.2472 91.1074 28.7031 89.8381 28.7031 87.8437C28.7031 85.8493 33.7786 82.587 33.7786 73.8856C33.7786 65.1841 28.884 59.2023 28.884 56.3018C28.884 54.9366 30.6893 53.7727 32.6012 52.9247C33.9892 52.3089 35.5015 52.0173 37.0191 52.0173C37.0326 52.0173 37.0475 52.0173 37.061 52.0173C38.5787 52.0173 40.0923 52.3076 41.4789 52.9247C43.3909 53.774 45.1961 54.9366 45.1961 56.3018C45.1961 59.2023 40.3015 65.1841 40.3015 73.8856C40.3015 82.587 45.377 85.8507 45.377 87.8437C45.3811 89.8381 44.8369 91.1074 42.6617 91.4693Z" fill="white"/>
</svg>
