<svg width="112" height="90" viewBox="0 0 112 90" fill="none" xmlns="http://www.w3.org/2000/svg">
<path d="M108.5 63.5H4.5V85.5H108.5V63.5Z" stroke="#0072BC" stroke-miterlimit="10"/>
<path d="M4 0V90" stroke="#0072BC" stroke-width="2" stroke-miterlimit="10"/>
<path d="M0 85.8999H112" stroke="#0072BC" stroke-width="2" stroke-miterlimit="10"/>
<path d="M16 18H8V86H16V18Z" fill="#D5F1FA" stroke="#0072BC" stroke-width="2" stroke-miterlimit="10"/>
<path d="M28 28H20V86H28V28Z" fill="#D5F1FA" stroke="#0072BC" stroke-width="2" stroke-miterlimit="10"/>
<path d="M40 42H32V86H40V42Z" fill="#D5F1FA" stroke="#0072BC" stroke-width="2" stroke-miterlimit="10"/>
<path d="M76 45H68V86H76V45Z" fill="#D5F1FA" stroke="#0072BC" stroke-width="2" stroke-miterlimit="10"/>
<path d="M88 53H80V86H88V53Z" fill="#D5F1FA" stroke="#0072BC" stroke-width="2" stroke-miterlimit="10"/>
<path d="M52 38H44V86H52V38Z" fill="#D5F1FA" stroke="#0072BC" stroke-width="2" stroke-miterlimit="10"/>
<path d="M97.5 5.5H4.5V85.5H97.5V5.5Z" stroke="#0072BC" stroke-miterlimit="10"/>
<path d="M8.1001 0.899902L39.6001 32.3999L59.5001 19.4999L84.5001 42.4999L109.5 22.4999" stroke="#0072BC" stroke-width="2" stroke-miterlimit="10"/>
<path d="M110 30V22H102" stroke="#0072BC" stroke-width="2" stroke-miterlimit="10"/>
<path d="M91.5 32.5V24.5H83.5" stroke="#0072BC" stroke-miterlimit="10"/>
<path d="M100 45H92V86H100V45Z" fill="#D5F1FA" stroke="#0072BC" stroke-width="2" stroke-miterlimit="10"/>
<path d="M40 35C41.6569 35 43 33.6569 43 32C43 30.3431 41.6569 29 40 29C38.3431 29 37 30.3431 37 32C37 33.6569 38.3431 35 40 35Z" fill="#D5F1FA" stroke="#0072BC" stroke-width="2" stroke-miterlimit="10"/>
<path d="M60 22C61.6569 22 63 20.6569 63 19C63 17.3431 61.6569 16 60 16C58.3431 16 57 17.3431 57 19C57 20.6569 58.3431 22 60 22Z" fill="#D5F1FA" stroke="#0072BC" stroke-width="2" stroke-miterlimit="10"/>
<path d="M85 46C86.6569 46 88 44.6569 88 43C88 41.3431 86.6569 40 85 40C83.3431 40 82 41.3431 82 43C82 44.6569 83.3431 46 85 46Z" fill="#D5F1FA" stroke="#0072BC" stroke-width="2" stroke-miterlimit="10"/>
<path d="M21 23L37 10L71 40L91 25" stroke="#0072BC" stroke-miterlimit="10"/>
<path d="M64 30H56V86H64V30Z" fill="#D5F1FA" stroke="#0072BC" stroke-width="2" stroke-miterlimit="10"/>
</svg>
