<svg width="107" height="121" viewBox="0 0 107 121" fill="none" xmlns="http://www.w3.org/2000/svg">
<path d="M77.3861 18H29.0161C26.7562 18 24.5888 18.8977 22.9908 20.4957C21.3928 22.0937 20.4951 24.2611 20.4951 26.521L20.4761 56.144C23.1714 52.8261 26.5201 50.0976 30.3141 48.128C34.1081 46.1584 38.2664 44.9898 42.531 44.6946C46.7956 44.3994 51.0753 44.984 55.1045 46.4121C59.1337 47.8402 62.8263 50.0813 65.953 52.9962C69.0798 55.9112 71.574 59.4378 73.2808 63.357C74.9876 67.2763 75.8705 71.5046 75.8747 75.7793C75.8789 80.0541 75.0044 84.2841 73.3053 88.2067C71.6063 92.1294 69.1191 95.6609 65.9981 98.582L56.0861 94.132L52.6071 89V82.535L55.0921 82.035C58.2401 77.235 58.7371 73.752 56.7491 70.108C58.4051 61.824 58.7371 54.867 51.6131 53.375C46.8131 50.559 42.0051 51.056 36.8691 53.044C35.0209 53.9452 33.412 55.2707 32.1739 56.9124C30.9358 58.5541 30.1035 60.4653 29.7451 62.49L31.4021 70.773C29.4141 71.602 29.3021 79.222 33.2771 82.038C35.9281 83.364 34.5501 82.538 35.3771 89.328L33.0581 94.128L23.0581 98.284C22.1302 97.3866 21.2585 96.4328 20.4481 95.428L20.4451 104H88.9241C91.184 104 93.3513 103.102 94.9493 101.504C96.5473 99.9063 97.4451 97.7389 97.4451 95.479V39.116L77.3861 18Z" fill="#D5F1FA"/>
<path d="M77.3861 18H29.0161C26.7562 18 24.5888 18.8977 22.9908 20.4957C21.3928 22.0937 20.4951 24.2611 20.4951 26.521L20.4761 56.144C23.1714 52.8261 26.5201 50.0976 30.3141 48.128C34.1081 46.1584 38.2664 44.9898 42.531 44.6946C46.7956 44.3994 51.0753 44.984 55.1045 46.4121C59.1337 47.8402 62.8263 50.0813 65.953 52.9962C69.0798 55.9112 71.574 59.4378 73.2808 63.357C74.9876 67.2763 75.8705 71.5046 75.8747 75.7793C75.8789 80.0541 75.0044 84.2841 73.3053 88.2067C71.6063 92.1294 69.1191 95.6609 65.9981 98.582L56.0861 94.132L52.6071 89V82.535L55.0921 82.035C58.2401 77.235 58.7371 73.752 56.7491 70.108C58.4051 61.824 58.7371 54.867 51.6131 53.375C46.8131 50.559 42.0051 51.056 36.8691 53.044C35.0209 53.9452 33.412 55.2707 32.1739 56.9124C30.9358 58.5541 30.1035 60.4653 29.7451 62.49L31.4021 70.773C29.4141 71.602 29.3021 79.222 33.2771 82.038C35.9281 83.364 34.5501 82.538 35.3771 89.328L33.0581 94.128L23.0581 98.284C22.1302 97.3866 21.2585 96.4328 20.4481 95.428L20.4451 104H88.9241C91.184 104 93.3513 103.102 94.9493 101.504C96.5473 99.9063 97.4451 97.7389 97.4451 95.479V39.116L77.3861 18Z" stroke="#0072BC" stroke-width="2" stroke-miterlimit="10"/>
<path d="M83.8281 75.838L87.2521 74.758C87.5924 74.649 87.8866 74.4296 88.0882 74.1345C88.2898 73.8395 88.3872 73.4856 88.3651 73.129C88.2621 71.2519 88.0383 69.3834 87.6951 67.535C87.6333 67.1914 87.4614 66.8773 87.2051 66.6402C86.9489 66.4031 86.6224 66.2559 86.2751 66.221L82.5391 65.861C82.2234 65.8318 81.9235 65.7095 81.6774 65.5095C81.4314 65.3096 81.2502 65.041 81.1571 64.738C80.8611 63.738 80.5261 62.756 80.1521 61.792C80.037 61.4902 80.0172 61.1603 80.0953 60.8469C80.1734 60.5334 80.3458 60.2515 80.5891 60.039L83.3041 57.639C83.5707 57.4013 83.7504 57.0814 83.8147 56.73C83.879 56.3786 83.8242 56.0158 83.6591 55.699C82.7843 53.9927 81.7981 52.3458 80.7071 50.769C80.5106 50.4808 80.2257 50.2644 79.8954 50.1523C79.5651 50.0403 79.2073 50.0388 78.8761 50.148L75.3031 51.348C75.006 51.4486 74.6858 51.4585 74.3831 51.3766C74.0804 51.2947 73.8089 51.1246 73.6031 50.888C72.9731 50.1547 72.3157 49.4453 71.6311 48.76C71.4049 48.5304 71.2541 48.2374 71.1985 47.92C71.143 47.6026 71.1854 47.2757 71.3201 46.983L72.8361 43.656C72.983 43.3324 73.018 42.9692 72.9356 42.6235C72.8532 42.2779 72.6581 41.9695 72.3811 41.747C70.8622 40.5037 69.2616 39.3638 67.5901 38.335C67.2955 38.1561 66.9506 38.0781 66.6077 38.113C66.2648 38.1478 65.9426 38.2935 65.6901 38.528L62.9301 41.057C62.6973 41.2722 62.4054 41.4126 62.092 41.4602C61.7787 41.5078 61.4582 41.4604 61.1721 41.324C60.3427 40.924 59.4981 40.5523 58.6381 40.209C58.3418 40.0895 58.0886 39.8833 57.9116 39.6174C57.7346 39.3516 57.642 39.0384 57.6461 38.719L57.6781 35.026C57.6798 34.672 57.5644 34.3274 57.3499 34.0458C57.1354 33.7642 56.8338 33.5614 56.4921 33.469C54.5882 32.9381 52.6504 32.5372 50.6921 32.269C50.35 32.2249 50.003 32.2936 49.7035 32.4647C49.4041 32.6358 49.1687 32.8999 49.0331 33.217L47.5451 36.629C47.4175 36.9231 47.204 37.1718 46.9325 37.3424C46.6611 37.513 46.3444 37.5976 46.0241 37.585C45.5787 37.567 45.1324 37.5577 44.6851 37.557C44.2377 37.5563 43.7914 37.5657 43.3461 37.585C43.0256 37.5976 42.7087 37.5131 42.4371 37.3425C42.1655 37.1719 41.9518 36.9232 41.8241 36.629L40.3391 33.212C40.2034 32.8949 39.968 32.6308 39.6686 32.4597C39.3692 32.2886 39.0221 32.2199 38.6801 32.264C36.7218 32.5321 34.784 32.933 32.8801 33.464C32.5384 33.5566 32.237 33.7594 32.0225 34.041C31.808 34.3225 31.6926 34.6671 31.6941 35.021L31.7271 38.714C31.731 39.0334 31.6384 39.3465 31.4614 39.6123C31.2844 39.8782 31.0312 40.0844 30.7351 40.204C29.8744 40.5453 29.0297 40.917 28.2011 41.319C27.9149 41.4554 27.5945 41.5028 27.2811 41.4552C26.9677 41.4076 26.6758 41.2672 26.4431 41.052L23.6831 38.523C23.4305 38.2885 23.1083 38.1428 22.7654 38.108C22.4225 38.0731 22.0776 38.1511 21.7831 38.33C20.1115 39.3588 18.5109 40.4987 16.9921 41.742C16.7157 41.965 16.521 42.2733 16.4385 42.6187C16.356 42.9641 16.3903 43.3272 16.5361 43.651L18.0531 46.978C18.1878 47.2708 18.2301 47.5977 18.1744 47.9152C18.1186 48.2326 17.9675 48.5256 17.7411 48.755C17.0577 49.439 16.4007 50.1483 15.7701 50.883C15.5638 51.1205 15.2914 51.2911 14.9877 51.373C14.684 51.455 14.3628 51.4445 14.0651 51.343L10.4921 50.143C10.161 50.0339 9.80335 50.0354 9.47322 50.1474C9.14308 50.2595 8.85837 50.4759 8.66207 50.764C7.57099 52.3408 6.58486 53.9877 5.71007 55.694C5.54491 56.0108 5.49014 56.3736 5.55444 56.725C5.61874 57.0764 5.79844 57.3963 6.06507 57.634L8.78007 60.034C9.02314 60.2467 9.1953 60.5286 9.27342 60.842C9.35154 61.1554 9.33187 61.4851 9.21707 61.787C8.84307 62.7497 8.50807 63.7317 8.21207 64.733C8.1189 65.036 7.93779 65.3046 7.69174 65.5045C7.44568 65.7045 7.14577 65.8268 6.83007 65.856L3.09407 66.216C2.74673 66.2509 2.42023 66.3981 2.164 66.6352C1.90778 66.8723 1.73579 67.1864 1.67407 67.53C1.33054 69.3783 1.10641 71.2469 1.00307 73.124C0.980982 73.4808 1.07856 73.8347 1.28034 74.1298C1.48212 74.4249 1.77658 74.6442 2.11707 74.753L5.54107 75.833C5.85799 75.9311 6.1369 76.1247 6.33969 76.3872C6.54247 76.6498 6.65925 76.9686 6.67407 77.3C6.7214 78.406 6.81474 79.4993 6.95407 80.58C6.99827 80.8966 6.94665 81.2191 6.80584 81.5061C6.66503 81.793 6.44151 82.0312 6.16407 82.19L2.88307 84.041C2.57972 84.2142 2.34112 84.4816 2.20343 84.8026C2.06574 85.1237 2.03647 85.4808 2.12007 85.82C2.54975 87.6079 3.09251 89.3668 3.74507 91.086C3.86986 91.421 4.1029 91.7047 4.40723 91.8922C4.71156 92.0797 5.06977 92.1602 5.42507 92.121L9.01807 91.712C9.34698 91.6765 9.67886 91.7431 9.96854 91.9029C10.2582 92.0627 10.4917 92.3078 10.6371 92.605C11.1584 93.649 11.7251 94.665 12.3371 95.653C12.5095 95.9258 12.596 96.2441 12.5853 96.5667C12.5746 96.8893 12.4672 97.2012 12.2771 97.462L10.0571 100.462C9.84978 100.745 9.74071 101.088 9.74649 101.438C9.75226 101.789 9.87258 102.128 10.0891 102.404C11.1958 103.829 12.389 105.185 13.6621 106.464C13.9126 106.718 14.2406 106.881 14.5942 106.928C14.9478 106.975 15.307 106.903 15.6151 106.723L18.7341 104.886C19.0131 104.72 19.3363 104.644 19.66 104.668C19.9837 104.692 20.2923 104.814 20.5441 105.019C21.5061 105.81 22.5061 106.553 23.5441 107.249C23.8077 107.428 24.0112 107.682 24.1283 107.978C24.2453 108.275 24.2703 108.599 24.2001 108.91L23.4001 112.531C23.3255 112.875 23.3657 113.233 23.5145 113.552C23.6634 113.871 23.9126 114.132 24.2241 114.295C25.7961 115.129 27.4178 115.866 29.0801 116.501C29.4116 116.631 29.777 116.646 30.1182 116.544C30.4594 116.443 30.7571 116.231 30.9641 115.941L33.0801 112.976C33.2665 112.712 33.5293 112.511 33.8332 112.4C34.1371 112.29 34.4675 112.275 34.7801 112.358C36.0173 112.69 37.2706 112.959 38.5351 113.164C38.8519 113.217 39.145 113.366 39.3756 113.59C39.6061 113.813 39.7632 114.102 39.8261 114.417L40.5571 118.017C40.6275 118.362 40.8097 118.674 41.0754 118.905C41.3412 119.136 41.6757 119.272 42.0271 119.294C42.9091 119.35 43.7981 119.382 44.6951 119.382C45.5921 119.382 46.4801 119.35 47.3631 119.294C47.7143 119.272 48.0485 119.135 48.3141 118.905C48.5796 118.674 48.7617 118.362 48.8321 118.017L49.5641 114.417C49.6266 114.102 49.7837 113.813 50.0143 113.589C50.2449 113.365 50.5381 113.217 50.8551 113.164C52.1196 112.959 53.3728 112.69 54.6101 112.358C54.9226 112.275 55.253 112.29 55.5569 112.401C55.8607 112.511 56.1236 112.712 56.3101 112.976L58.4251 115.941C58.6328 116.23 58.9306 116.442 59.2718 116.543C59.613 116.645 59.9782 116.63 60.3101 116.501C62.2286 115.745 64.0703 114.808 65.8101 113.701C66.7571 112.754 64.8631 108.019 65.8451 107.253C66.8271 106.487 67.8831 105.814 68.8451 105.023C69.0971 104.818 69.4058 104.696 69.7297 104.672C70.0535 104.648 70.3769 104.724 70.6561 104.89L73.7751 106.727C74.0831 106.907 74.4423 106.979 74.7959 106.932C75.1496 106.885 75.4775 106.722 75.7281 106.468C77.0011 105.189 78.1944 103.833 79.3011 102.408C79.5174 102.132 79.6376 101.793 79.6432 101.442C79.6488 101.092 79.5395 100.749 79.3321 100.466L77.1131 97.466C76.9225 97.2054 76.8147 96.8935 76.8039 96.5709C76.793 96.2483 76.8795 95.9298 77.0521 95.657C77.6641 94.6697 78.2307 93.6537 78.7521 92.609C78.8973 92.3119 79.1306 92.0668 79.4201 91.907C79.7096 91.7472 80.0413 91.6805 80.3701 91.716L83.9631 92.125C84.3185 92.1651 84.6771 92.0849 84.9816 91.8973C85.2861 91.7097 85.519 91.4255 85.6431 91.09C86.2884 89.3691 86.8235 87.6089 87.2451 85.82C87.3288 85.4809 87.2996 85.1238 87.1621 84.8028C87.0246 84.4818 86.7862 84.2144 86.4831 84.041L83.2021 82.185C82.9246 82.0262 82.7011 81.788 82.5603 81.5011C82.4195 81.2141 82.3679 80.8916 82.4121 80.575C82.5514 79.495 82.6447 78.4017 82.6921 77.295C82.709 76.9649 82.827 76.648 83.0303 76.3873C83.2335 76.1267 83.5121 75.9349 83.8281 75.838ZM65.9981 98.582L56.0861 94.132L52.6071 89V82.535L55.0921 82.035C58.2401 77.235 58.7371 73.752 56.7491 70.108C58.4051 61.824 58.7371 54.867 51.6131 53.375C46.8131 50.559 42.0051 51.056 36.8691 53.044C35.0209 53.9452 33.412 55.2707 32.1739 56.9124C30.9358 58.5541 30.1035 60.4653 29.7451 62.49L31.4021 70.773C29.4141 71.602 29.3021 79.222 33.2771 82.038C35.9281 83.364 34.5501 82.538 35.3771 89.328L33.0581 94.128L23.0581 98.284C18.5606 93.9587 15.4635 88.384 14.1672 82.2803C12.8708 76.1766 13.4347 69.8244 15.7861 64.0445C18.1374 58.2646 22.168 53.3227 27.3571 49.8573C32.5463 46.392 38.6554 44.5625 44.8951 44.6052C51.1348 44.6479 57.2183 46.5609 62.3595 50.097C67.5007 53.6331 71.4633 58.6298 73.7353 64.4413C76.0072 70.2528 76.4841 76.6122 75.1043 82.6976C73.7245 88.783 70.5514 94.3147 65.9951 98.578L65.9981 98.582Z" fill="#D5F1FA"/>
<path d="M83.8281 75.838L87.2521 74.758C87.5924 74.649 87.8866 74.4296 88.0882 74.1345C88.2898 73.8395 88.3872 73.4856 88.3651 73.129C88.2621 71.2519 88.0383 69.3833 87.6951 67.535C87.6333 67.1914 87.4614 66.8773 87.2051 66.6402C86.9489 66.4031 86.6224 66.2559 86.2751 66.221L82.5391 65.861C82.2234 65.8318 81.9235 65.7095 81.6774 65.5095C81.4314 65.3096 81.2502 65.041 81.1571 64.738C80.8611 63.738 80.5261 62.756 80.1521 61.792C80.037 61.4902 80.0172 61.1603 80.0953 60.8469C80.1734 60.5334 80.3458 60.2515 80.5891 60.039L83.3041 57.639C83.5707 57.4013 83.7504 57.0813 83.8147 56.73C83.879 56.3786 83.8242 56.0158 83.6591 55.699C82.7843 53.9927 81.7981 52.3458 80.7071 50.769C80.5106 50.4808 80.2257 50.2644 79.8954 50.1523C79.5651 50.0403 79.2073 50.0388 78.8761 50.148L75.3031 51.348C75.006 51.4486 74.6858 51.4585 74.3831 51.3766C74.0804 51.2947 73.8089 51.1246 73.6031 50.888C72.9731 50.1547 72.3157 49.4453 71.6311 48.76C71.4049 48.5304 71.2541 48.2374 71.1985 47.92C71.143 47.6026 71.1854 47.2757 71.3201 46.983L72.8361 43.656C72.983 43.3324 73.018 42.9692 72.9356 42.6235C72.8532 42.2779 72.6581 41.9695 72.3811 41.747C70.8622 40.5037 69.2616 39.3638 67.5901 38.335C67.2955 38.1561 66.9506 38.0781 66.6077 38.113C66.2648 38.1478 65.9427 38.2935 65.6901 38.528L62.9301 41.057C62.6973 41.2722 62.4054 41.4126 62.092 41.4602C61.7787 41.5078 61.4582 41.4604 61.1721 41.324C60.3427 40.924 59.4981 40.5523 58.6381 40.209C58.3418 40.0895 58.0886 39.8833 57.9116 39.6174C57.7346 39.3516 57.642 39.0384 57.6461 38.719L57.6781 35.026C57.6798 34.672 57.5644 34.3274 57.3499 34.0458C57.1354 33.7642 56.8338 33.5614 56.4921 33.469C54.5882 32.9381 52.6504 32.5372 50.6921 32.269C50.35 32.2249 50.003 32.2936 49.7035 32.4647C49.4041 32.6358 49.1687 32.8999 49.0331 33.217L47.5451 36.629C47.4175 36.9231 47.204 37.1718 46.9325 37.3424C46.6611 37.513 46.3444 37.5976 46.0241 37.585C45.5787 37.567 45.1324 37.5577 44.6851 37.557C44.2377 37.5563 43.7914 37.5657 43.3461 37.585C43.0256 37.5976 42.7087 37.5131 42.4371 37.3425C42.1655 37.1719 41.9518 36.9232 41.8241 36.629L40.3391 33.212C40.2034 32.8949 39.968 32.6308 39.6686 32.4597C39.3692 32.2886 39.0221 32.2199 38.6801 32.264C36.7218 32.5321 34.784 32.933 32.8801 33.464C32.5384 33.5566 32.237 33.7594 32.0225 34.041C31.808 34.3225 31.6926 34.6671 31.6941 35.021L31.7271 38.714C31.731 39.0334 31.6384 39.3465 31.4614 39.6123C31.2844 39.8782 31.0312 40.0844 30.7351 40.204C29.8744 40.5453 29.0297 40.917 28.2011 41.319C27.9149 41.4554 27.5945 41.5028 27.2811 41.4552C26.9677 41.4076 26.6758 41.2672 26.4431 41.052L23.6831 38.523C23.4305 38.2885 23.1083 38.1428 22.7654 38.108C22.4225 38.0731 22.0776 38.1511 21.7831 38.33C20.1115 39.3588 18.5109 40.4987 16.9921 41.742C16.7157 41.965 16.521 42.2733 16.4385 42.6187C16.356 42.9641 16.3903 43.3272 16.5361 43.651L18.0531 46.978C18.1878 47.2708 18.2301 47.5977 18.1744 47.9152C18.1186 48.2326 17.9675 48.5256 17.7411 48.755C17.0577 49.439 16.4007 50.1483 15.7701 50.883C15.5638 51.1205 15.2914 51.2911 14.9877 51.373C14.684 51.455 14.3628 51.4445 14.0651 51.343L10.4921 50.143C10.161 50.0339 9.80335 50.0354 9.47322 50.1474C9.14308 50.2595 8.85837 50.4759 8.66207 50.764C7.57099 52.3408 6.58486 53.9877 5.71007 55.694C5.54491 56.0108 5.49014 56.3736 5.55444 56.725C5.61874 57.0764 5.79844 57.3963 6.06507 57.634L8.78007 60.034C9.02314 60.2467 9.1953 60.5286 9.27342 60.842C9.35154 61.1554 9.33187 61.4851 9.21707 61.787C8.84307 62.7497 8.50807 63.7317 8.21207 64.733C8.1189 65.036 7.93779 65.3046 7.69174 65.5045C7.44568 65.7045 7.14577 65.8268 6.83007 65.856L3.09407 66.216C2.74673 66.2509 2.42023 66.3981 2.164 66.6352C1.90778 66.8723 1.73579 67.1864 1.67407 67.53C1.33054 69.3783 1.10641 71.2469 1.00307 73.124C0.980982 73.4808 1.07856 73.8347 1.28034 74.1298C1.48212 74.4249 1.77658 74.6442 2.11707 74.753L5.54107 75.833C5.85799 75.9311 6.1369 76.1247 6.33969 76.3872C6.54247 76.6498 6.65925 76.9686 6.67407 77.3C6.7214 78.406 6.81474 79.4993 6.95407 80.58C6.99827 80.8966 6.94665 81.2191 6.80584 81.5061C6.66503 81.793 6.44151 82.0313 6.16407 82.19L2.88307 84.041C2.57972 84.2142 2.34112 84.4816 2.20343 84.8026C2.06574 85.1237 2.03647 85.4808 2.12007 85.82C2.54975 87.6079 3.09251 89.3668 3.74507 91.086C3.86986 91.421 4.1029 91.7047 4.40723 91.8922C4.71156 92.0797 5.06977 92.1602 5.42507 92.121L9.01807 91.712C9.34698 91.6765 9.67886 91.7431 9.96854 91.9029C10.2582 92.0627 10.4917 92.3078 10.6371 92.605C11.1584 93.649 11.7251 94.665 12.3371 95.653C12.5095 95.9258 12.596 96.2441 12.5853 96.5667C12.5746 96.8893 12.4672 97.2012 12.2771 97.462L10.0571 100.462C9.84978 100.745 9.74071 101.088 9.74649 101.438C9.75226 101.789 9.87258 102.128 10.0891 102.404C11.1958 103.829 12.389 105.185 13.6621 106.464C13.9126 106.718 14.2406 106.881 14.5942 106.928C14.9478 106.975 15.307 106.903 15.6151 106.723L18.7341 104.886C19.0131 104.72 19.3363 104.644 19.66 104.668C19.9837 104.692 20.2923 104.814 20.5441 105.019C21.5061 105.81 22.5061 106.553 23.5441 107.249C23.8077 107.428 24.0113 107.682 24.1283 107.978C24.2453 108.275 24.2703 108.599 24.2001 108.91L23.4001 112.531C23.3255 112.875 23.3657 113.233 23.5145 113.552C23.6634 113.871 23.9126 114.132 24.2241 114.295C25.7961 115.129 27.4178 115.866 29.0801 116.501C29.4116 116.631 29.777 116.646 30.1182 116.544C30.4594 116.443 30.7571 116.231 30.9641 115.941L33.0801 112.976C33.2665 112.712 33.5293 112.511 33.8332 112.4C34.1371 112.29 34.4675 112.275 34.7801 112.358C36.0173 112.69 37.2706 112.959 38.5351 113.164C38.8519 113.217 39.145 113.366 39.3756 113.59C39.6061 113.813 39.7632 114.102 39.8261 114.417L40.5571 118.017C40.6275 118.362 40.8097 118.674 41.0754 118.905C41.3412 119.136 41.6757 119.273 42.0271 119.294C42.9091 119.35 43.7981 119.382 44.6951 119.382C45.5921 119.382 46.4801 119.35 47.3631 119.294C47.7143 119.272 48.0485 119.135 48.3141 118.905C48.5796 118.674 48.7617 118.362 48.8321 118.017L49.5641 114.417C49.6266 114.102 49.7837 113.813 50.0143 113.589C50.2449 113.365 50.5381 113.217 50.8551 113.164C52.1196 112.959 53.3728 112.69 54.6101 112.358C54.9226 112.275 55.253 112.29 55.5569 112.401C55.8607 112.511 56.1236 112.712 56.3101 112.976L58.4251 115.941C58.6328 116.23 58.9306 116.442 59.2718 116.543C59.613 116.645 59.9782 116.63 60.3101 116.501C62.2286 115.745 64.0703 114.808 65.8101 113.701C66.7571 112.754 64.8631 108.019 65.8451 107.253C66.8271 106.487 67.8831 105.814 68.8451 105.023C69.0971 104.818 69.4058 104.696 69.7297 104.672C70.0535 104.648 70.3769 104.724 70.6561 104.89L73.7751 106.727C74.0831 106.907 74.4423 106.979 74.7959 106.932C75.1496 106.885 75.4775 106.722 75.7281 106.468C77.0011 105.189 78.1944 103.833 79.3011 102.408C79.5174 102.132 79.6376 101.793 79.6432 101.442C79.6487 101.092 79.5395 100.749 79.3321 100.466L77.1131 97.466C76.9225 97.2054 76.8147 96.8935 76.8039 96.5709C76.793 96.2483 76.8795 95.9298 77.0521 95.657C77.6641 94.6697 78.2307 93.6537 78.7521 92.609C78.8973 92.3119 79.1306 92.0668 79.4201 91.907C79.7096 91.7472 80.0413 91.6805 80.3701 91.716L83.9631 92.125C84.3185 92.1651 84.6771 92.0849 84.9816 91.8973C85.2861 91.7097 85.519 91.4255 85.6431 91.09C86.2884 89.3691 86.8235 87.6089 87.2451 85.82C87.3288 85.4809 87.2996 85.1238 87.1621 84.8028C87.0246 84.4818 86.7862 84.2144 86.4831 84.041L83.2021 82.185C82.9246 82.0262 82.7011 81.788 82.5603 81.5011C82.4195 81.2141 82.3679 80.8916 82.4121 80.575C82.5514 79.495 82.6447 78.4017 82.6921 77.295C82.709 76.9649 82.827 76.648 83.0303 76.3873C83.2335 76.1267 83.5121 75.9349 83.8281 75.838V75.838ZM65.9981 98.582L56.0861 94.132L52.6071 89V82.535L55.0921 82.035C58.2401 77.235 58.7371 73.752 56.7491 70.108C58.4051 61.824 58.7371 54.867 51.6131 53.375C46.8131 50.559 42.0051 51.056 36.8691 53.044C35.0209 53.9452 33.412 55.2707 32.1739 56.9124C30.9358 58.5541 30.1035 60.4653 29.7451 62.49L31.4021 70.773C29.4141 71.602 29.3021 79.222 33.2771 82.038C35.9281 83.364 34.5501 82.538 35.3771 89.328L33.0581 94.128L23.0581 98.284C18.5605 93.9587 15.4635 88.384 14.1672 82.2803C12.8708 76.1766 13.4347 69.8244 15.7861 64.0445C18.1374 58.2646 22.168 53.3227 27.3571 49.8573C32.5463 46.392 38.6554 44.5625 44.8951 44.6052C51.1348 44.6479 57.2183 46.5609 62.3595 50.097C67.5007 53.6331 71.4633 58.6298 73.7353 64.4413C76.0072 70.2528 76.4841 76.6122 75.1043 82.6976C73.7245 88.783 70.5514 94.3147 65.9951 98.578L65.9981 98.582Z" stroke="#0072BC" stroke-width="2" stroke-miterlimit="10"/>
<path d="M98.415 26.071L91.344 17L98.415 7.92896L105.486 17L98.415 26.071Z" fill="#D5F1FA" stroke="#0072BC" stroke-width="2" stroke-miterlimit="10"/>
<path d="M85.4151 11.071L81.8801 6.535L85.4151 2L88.9511 6.535L85.4151 11.071Z" fill="#D5F1FA" stroke="#0072BC" stroke-width="2" stroke-miterlimit="10"/>
<path d="M97.445 39.116H83.824C82.9784 39.116 82.1412 38.9494 81.36 38.6258C80.5789 38.3022 79.8691 37.8279 79.2713 37.23C78.6734 36.6321 78.1992 35.9222 77.8758 35.141C77.5523 34.3598 77.3859 33.5225 77.386 32.677V18" stroke="#0072BC" stroke-width="2" stroke-miterlimit="10"/>
<path d="M65.9981 98.5821L56.0861 94.1321L52.6071 89.0001V82.5351L55.0921 82.0351C58.2401 77.2351 58.7371 73.7521 56.7491 70.1081C58.4051 61.8241 58.7371 54.8671 51.6131 53.3761C46.8131 50.5591 42.0051 51.0561 36.8691 53.0441C35.0209 53.9453 33.4121 55.2709 32.174 56.9125C30.9359 58.5542 30.1036 60.4654 29.7451 62.4901L31.4021 70.7731C29.4141 71.6021 29.3021 79.2221 33.2771 82.0381C35.9281 83.3641 34.5501 82.5381 35.3771 89.3281L33.0581 94.1281L23.0581 98.2841C28.8129 103.828 36.4773 106.95 44.4679 107.004C52.4585 107.059 60.1649 104.043 65.9951 98.5781L65.9981 98.5821Z" fill="#D5F1FA" stroke="#0072BC" stroke-width="2" stroke-miterlimit="10"/>
</svg>
