<svg width="768" height="247" viewBox="0 0 768 247" fill="none" xmlns="http://www.w3.org/2000/svg">
<g id="Group">
<g id="Group_2">
<path id="Vector" d="M590 69.2001C603.255 69.2001 614 65.6184 614 61.2001C614 56.7818 603.255 53.2001 590 53.2001C576.745 53.2001 566 56.7818 566 61.2001C566 65.6184 576.745 69.2001 590 69.2001Z" fill="#D5F1FA"/>
<g id="Group_3">
<path id="Vector_2" d="M590 81.2001C603.255 81.2001 614 77.6184 614 73.2001C614 68.7818 603.255 65.2001 590 65.2001C576.745 65.2001 566 68.7818 566 73.2001C566 77.6184 576.745 81.2001 590 81.2001Z" fill="#D5F1FA"/>
<path id="Vector_3" d="M614 61.2001H566V73.2001H614V61.2001Z" fill="#D5F1FA"/>
</g>
</g>
<g id="Group_4">
<path id="Vector_4" d="M71 107.7H149" stroke="#0072BC" stroke-miterlimit="10"/>
<path id="Vector_5" d="M71 111.7H123" stroke="#0072BC" stroke-miterlimit="10"/>
<path id="Vector_6" d="M71 100.2H113" stroke="#0072BC" stroke-width="2" stroke-miterlimit="10"/>
<path id="Vector_7" d="M71 198.7H149" stroke="#0072BC" stroke-miterlimit="10"/>
<path id="Vector_8" d="M71 202.7H123" stroke="#0072BC" stroke-miterlimit="10"/>
<path id="Vector_9" d="M71 190.2H113" stroke="#0072BC" stroke-width="2" stroke-miterlimit="10"/>
<path id="Vector_10" d="M71 135.7H149" stroke="#0072BC" stroke-miterlimit="10"/>
<path id="Vector_11" d="M71 139.7H123" stroke="#0072BC" stroke-miterlimit="10"/>
<path id="Vector_12" d="M71 128.2H91" stroke="#0072BC" stroke-width="2" stroke-miterlimit="10"/>
<path id="Vector_13" d="M97 128.2H137" stroke="#0072BC" stroke-width="2" stroke-miterlimit="10"/>
<path id="Vector_14" d="M71 166.7H149" stroke="#0072BC" stroke-miterlimit="10"/>
<path id="Vector_15" d="M71 170.7H111" stroke="#0072BC" stroke-miterlimit="10"/>
<path id="Vector_16" d="M71 159.2H111" stroke="#0072BC" stroke-width="2" stroke-miterlimit="10"/>
<path id="Vector_17" d="M117 159.2H131" stroke="#0072BC" stroke-width="2" stroke-miterlimit="10"/>
<path id="Vector_18" d="M38 39.2001C30.8 39.2001 25 45.0001 25 52.2001V216.3C25 223.5 30.8 229.3 38 229.3H154.9C162.1 229.3 167.9 223.5 167.9 216.3V79.4001L127 39.2001H38Z" stroke="#0072BC" stroke-width="2" stroke-miterlimit="10" stroke-linejoin="round"/>
<path id="Vector_19" d="M140 79.2001H167L127 39.2001V66.2001C127 73.4001 132.8 79.2001 140 79.2001Z" stroke="#0072BC" stroke-width="2" stroke-miterlimit="10" stroke-linejoin="round"/>
<path id="Vector_20" d="M47 69.2001H99" stroke="#0072BC" stroke-width="2" stroke-miterlimit="10"/>
<path id="Vector_21" d="M47 61.2001H71" stroke="#0072BC" stroke-width="2" stroke-miterlimit="10"/>
<path id="Vector_22" d="M79 61.2001H115" stroke="#0072BC" stroke-width="2" stroke-miterlimit="10"/>
<path id="Vector_23" d="M57.9002 92.4L47.6002 105.6L42.2002 98.7" stroke="#0072BC" stroke-width="2" stroke-miterlimit="10"/>
<path id="Vector_24" d="M57.9002 121.3L47.6002 134.5L42.2002 127.6" stroke="#0072BC" stroke-width="2" stroke-miterlimit="10"/>
<path id="Vector_25" d="M57.9002 151.7L47.6002 164.9L42.2002 158" stroke="#0072BC" stroke-width="2" stroke-miterlimit="10"/>
<path id="Vector_26" d="M45.2002 235.7H154.9C165.7 235.7 174.5 226.9 174.5 216.1V86.4" stroke="#0072BC" stroke-miterlimit="10" stroke-linecap="round" stroke-linejoin="round"/>
<path id="Vector_27" d="M51.2002 241.7H156.5C169.8 241.7 180.5 231 180.5 217.7V92.4" stroke="#0072BC" stroke-miterlimit="10" stroke-linecap="round" stroke-linejoin="round"/>
</g>
<g id="Group_5">
<path id="Vector_28" d="M423.1 121.5C426.5 109.8 437.2 101.2 450 101.2V86.9C430.9 86.9 414.7 98.6 408.8 116.8" stroke="#0072BC" stroke-width="2" stroke-miterlimit="10"/>
<path id="Vector_29" d="M422 129.2C422 126.5 422.4 123.9 423.1 121.5L408.8 116.9C407.3 121.4 406.7 125.5 406.7 130.3C406.7 154.2 426.6 173.6 450.5 173.6V157.3C435 157.2 422 144.7 422 129.2Z" fill="#D5F1FA" stroke="#0072BC" stroke-miterlimit="10"/>
<path id="Vector_30" d="M450 173.5C473.9 173.5 493.3 154.1 493.3 130.2H478C477.5 145.2 465.2 157.2 450 157.2" stroke="#0072BC" stroke-width="2" stroke-miterlimit="10"/>
<path id="Vector_31" d="M454 98.3C469 98.8 481 111.1 481 126.3H497.3C497.3 102.4 477.9 83 454 83V98.3Z" fill="#D5F1FA" stroke="#0072BC" stroke-width="2" stroke-miterlimit="10"/>
<path id="Vector_32" d="M450 157.2C434.5 157.2 422 144.7 422 129.2C422 126.5 422.4 123.9 423.1 121.5" stroke="#0072BC" stroke-width="2" stroke-miterlimit="10"/>
<path id="Vector_33" d="M408.8 116.8C407.3 121.3 406.7 125.4 406.7 130.2C406.7 154.1 426.1 173.5 450 173.5" stroke="#0072BC" stroke-width="2" stroke-miterlimit="10"/>
</g>
<g id="Group_6">
<path id="Vector_34" d="M261.3 185.3C283.447 185.3 301.4 167.347 301.4 145.2C301.4 123.053 283.447 105.1 261.3 105.1C239.154 105.1 221.2 123.053 221.2 145.2C221.2 167.347 239.154 185.3 261.3 185.3Z" stroke="#0072BC" stroke-width="2" stroke-miterlimit="10"/>
<path id="Vector_35" d="M225.2 145.2C225.2 125.3 241.4 109.1 261.3 109.1" stroke="#0072BC" stroke-miterlimit="10" stroke-linecap="round" stroke-linejoin="round"/>
<path id="Vector_36" d="M275.6 134.2L257 158L247.3 145.6" stroke="#0072BC" stroke-width="2" stroke-miterlimit="10" stroke-linecap="round"/>
<path id="Vector_37" d="M288.5 173.7L334.5 219.7" stroke="#0072BC" stroke-width="2" stroke-miterlimit="10"/>
<path id="Vector_38" d="M298.048 178.263L292.532 183.778L339.908 231.154L345.423 225.639L298.048 178.263Z" fill="#D5F1FA" stroke="#0072BC" stroke-width="2" stroke-miterlimit="10"/>
</g>
<path id="Vector_39" d="M614 85.2001C614 89.6001 603.3 93.2001 590 93.2001C576.7 93.2001 566 89.6001 566 85.2001" stroke="#0072BC" stroke-width="2" stroke-miterlimit="10"/>
<path id="Vector_40" d="M614 73.2001C614 77.6001 603.3 81.2001 590 81.2001C576.7 81.2001 566 77.6001 566 73.2001" stroke="#0072BC" stroke-width="2" stroke-miterlimit="10"/>
<path id="Vector_41" d="M590 69.2001C603.255 69.2001 614 65.6184 614 61.2001C614 56.7818 603.255 53.2001 590 53.2001C576.745 53.2001 566 56.7818 566 61.2001C566 65.6184 576.745 69.2001 590 69.2001Z" stroke="#0072BC" stroke-width="2" stroke-miterlimit="10"/>
<path id="Vector_42" d="M566 61.2001V97.2001C566 101.6 576.7 105.2 590 105.2C603.3 105.2 614 101.6 614 97.2001V61.2001" stroke="#0072BC" stroke-width="2" stroke-miterlimit="10"/>
<path id="Vector_43" d="M301 144.7H343.5V82.2001" stroke="#0072BC" stroke-miterlimit="10"/>
<path id="Vector_44" d="M222 144.7H181" stroke="#0072BC" stroke-miterlimit="10"/>
<path id="Vector_45" d="M221.5 148.7H205" stroke="#0072BC" stroke-miterlimit="10"/>
<path id="Vector_46" d="M302 148.7H369.5V129.7H406.5" stroke="#0072BC" stroke-miterlimit="10"/>
<path id="Vector_47" d="M622 199.7H369.5V148.5" stroke="#0072BC" stroke-miterlimit="10"/>
<path id="Vector_48" d="M224 35.7001C228.694 35.7001 232.5 31.8945 232.5 27.2001C232.5 22.5057 228.694 18.7001 224 18.7001C219.306 18.7001 215.5 22.5057 215.5 27.2001C215.5 31.8945 219.306 35.7001 224 35.7001Z" fill="#D5F1FA" stroke="#0072BC" stroke-miterlimit="10"/>
<path id="Vector_49" d="M663 67.7001C667.694 67.7001 671.5 63.8945 671.5 59.2001C671.5 54.5057 667.694 50.7001 663 50.7001C658.306 50.7001 654.5 54.5057 654.5 59.2001C654.5 63.8945 658.306 67.7001 663 67.7001Z" fill="#D5F1FA" stroke="#0072BC" stroke-miterlimit="10"/>
<path id="Vector_50" d="M526 169.7C530.694 169.7 534.5 165.894 534.5 161.2C534.5 156.506 530.694 152.7 526 152.7C521.306 152.7 517.5 156.506 517.5 161.2C517.5 165.894 521.306 169.7 526 169.7Z" stroke="#0072BC" stroke-miterlimit="10"/>
<path id="Vector_51" d="M402 57.7001C406.694 57.7001 410.5 53.8945 410.5 49.2001C410.5 44.5057 406.694 40.7001 402 40.7001C397.306 40.7001 393.5 44.5057 393.5 49.2001C393.5 53.8945 397.306 57.7001 402 57.7001Z" stroke="#0072BC" stroke-miterlimit="10"/>
<path id="Vector_52" d="M238.5 42.7001C240.709 42.7001 242.5 40.9092 242.5 38.7001C242.5 36.4909 240.709 34.7001 238.5 34.7001C236.291 34.7001 234.5 36.4909 234.5 38.7001C234.5 40.9092 236.291 42.7001 238.5 42.7001Z" fill="#D5F1FA" stroke="#0072BC" stroke-miterlimit="10"/>
<path id="Vector_53" d="M209.5 222.7C211.709 222.7 213.5 220.909 213.5 218.7C213.5 216.491 211.709 214.7 209.5 214.7C207.291 214.7 205.5 216.491 205.5 218.7C205.5 220.909 207.291 222.7 209.5 222.7Z" fill="#D5F1FA" stroke="#0072BC" stroke-miterlimit="10"/>
<path id="Vector_54" d="M4.5 245.7C6.70914 245.7 8.5 243.909 8.5 241.7C8.5 239.491 6.70914 237.7 4.5 237.7C2.29086 237.7 0.5 239.491 0.5 241.7C0.5 243.909 2.29086 245.7 4.5 245.7Z" fill="#D5F1FA" stroke="#0072BC" stroke-miterlimit="10"/>
<path id="Vector_55" d="M654.5 104.7C656.709 104.7 658.5 102.909 658.5 100.7C658.5 98.4909 656.709 96.7001 654.5 96.7001C652.291 96.7001 650.5 98.4909 650.5 100.7C650.5 102.909 652.291 104.7 654.5 104.7Z" fill="#D5F1FA" stroke="#0072BC" stroke-miterlimit="10"/>
<path id="Vector_56" d="M420.5 45.7001C422.709 45.7001 424.5 43.9092 424.5 41.7001C424.5 39.4909 422.709 37.7001 420.5 37.7001C418.291 37.7001 416.5 39.4909 416.5 41.7001C416.5 43.9092 418.291 45.7001 420.5 45.7001Z" fill="#D5F1FA" stroke="#0072BC" stroke-miterlimit="10"/>
<path id="Vector_57" d="M763.5 224.7C765.709 224.7 767.5 222.909 767.5 220.7C767.5 218.491 765.709 216.7 763.5 216.7C761.291 216.7 759.5 218.491 759.5 220.7C759.5 222.909 761.291 224.7 763.5 224.7Z" fill="#D5F1FA" stroke="#0072BC" stroke-miterlimit="10"/>
<path id="Vector_58" d="M153.5 23.7001C155.709 23.7001 157.5 21.9092 157.5 19.7001C157.5 17.4909 155.709 15.7001 153.5 15.7001C151.291 15.7001 149.5 17.4909 149.5 19.7001C149.5 21.9092 151.291 23.7001 153.5 23.7001Z" stroke="#0072BC" stroke-miterlimit="10"/>
<path id="Vector_59" d="M589.5 104.7V199.7" stroke="#0072BC" stroke-miterlimit="10"/>
<path id="Vector_60" d="M585.5 173.7V169.7" stroke="#0072BC" stroke-miterlimit="10"/>
<g id="Group_7">
<path id="Vector_61" d="M683.4 220.2H624.6C623.2 220.2 622 219 622 217.6V177.9C622 176.5 623.2 175.3 624.6 175.3H686V217.6C686 219.1 684.8 220.2 683.4 220.2Z" fill="#D5F1FA" stroke="#0072BC" stroke-width="2" stroke-miterlimit="10"/>
<path id="Vector_62" d="M686 175.3H656.7L661.8 165.6C662.3 164.7 663.1 164.2 664.1 164.2H683.4C684.8 164.2 686 165.4 686 166.8V175.3Z" stroke="#0072BC" stroke-width="2" stroke-miterlimit="10"/>
<path id="Vector_63" d="M655.5 219.2V180.7H687" stroke="#0072BC" stroke-miterlimit="10"/>
<path id="Vector_64" d="M627.5 214.2H649.5" stroke="#0072BC" stroke-width="2" stroke-miterlimit="10"/>
<path id="Vector_65" d="M680.5 185.7H660.5V191.7H680.5V185.7Z" stroke="#0072BC" stroke-width="0.9837" stroke-miterlimit="10"/>
</g>
<path id="Vector_66" d="M19.3998 20L12.2998 10.9L19.3998 1.80005L26.4998 10.9L19.3998 20Z" stroke="#0072BC" stroke-miterlimit="10"/>
<path id="Vector_67" d="M30.5 25.3001L27 20.8001L30.5 16.2001L34.1 20.8001L30.5 25.3001Z" fill="#D5F1FA" stroke="#0072BC" stroke-miterlimit="10"/>
<path id="Vector_68" d="M363.2 82.2H322.9C320.2 82.2 318.1 80 318.1 77.4V17.1C318.1 14.4 320.3 12.3 322.9 12.3H363.2C365.9 12.3 368 14.5 368 17.1V77.4C368 80.1 365.8 82.2 363.2 82.2Z" stroke="#0072BC" stroke-width="2" stroke-miterlimit="10"/>
<path id="Vector_69" d="M327 22.2001H359" stroke="#0072BC" stroke-width="2" stroke-miterlimit="10"/>
<path id="Vector_70" d="M327 29.8H359" stroke="#0072BC" stroke-miterlimit="10"/>
<path id="Vector_71" d="M327 32.7001H359" stroke="#0072BC" stroke-miterlimit="10"/>
<path id="Vector_72" d="M327 35.7001H359" stroke="#0072BC" stroke-miterlimit="10"/>
<path id="Vector_73" d="M327 38.7001H359" stroke="#0072BC" stroke-miterlimit="10"/>
<path id="Vector_74" d="M327 41.7001H359" stroke="#0072BC" stroke-miterlimit="10"/>
<path id="Vector_75" d="M327 62.8H359" stroke="#0072BC" stroke-miterlimit="10"/>
<path id="Vector_76" d="M327 65.7001H359" stroke="#0072BC" stroke-miterlimit="10"/>
<path id="Vector_77" d="M327 68.7001H359" stroke="#0072BC" stroke-miterlimit="10"/>
<path id="Vector_78" d="M327 71.7001H338.7" stroke="#0072BC" stroke-miterlimit="10"/>
<path id="Vector_79" d="M327 52.2001H344.9" stroke="#0072BC" stroke-width="2" stroke-miterlimit="10"/>
<path id="Vector_80" d="M327 59.8H359" stroke="#0072BC" stroke-miterlimit="10"/>
</g>
</svg>
