<svg width="697" height="225" viewBox="0 0 697 225" fill="none" xmlns="http://www.w3.org/2000/svg">
<g id="Project delivery copy">
<path id="Vector" d="M371.389 31.536H331.085C328.407 31.536 326.237 33.7065 326.237 36.384V96.688C326.237 99.3655 328.407 101.536 331.085 101.536H371.389C374.066 101.536 376.237 99.3655 376.237 96.688V36.384C376.237 33.7065 374.066 31.536 371.389 31.536Z" stroke="#0072BC" stroke-width="2" stroke-miterlimit="10"/>
<path id="Vector_2" d="M335.237 41.536H367.237" stroke="#0072BC" stroke-width="2" stroke-miterlimit="10"/>
<path id="Vector_3" d="M335.237 49.099H367.237" stroke="#0072BC" stroke-miterlimit="10"/>
<path id="Vector_4" d="M335.237 52.036H367.237" stroke="#0072BC" stroke-miterlimit="10"/>
<path id="Vector_5" d="M335.237 55.036H367.237" stroke="#0072BC" stroke-miterlimit="10"/>
<path id="Vector_6" d="M335.238 58.036H367.236" stroke="#0072BC" stroke-miterlimit="10"/>
<path id="Vector_7" d="M335.237 61.036H367.237" stroke="#0072BC" stroke-miterlimit="10"/>
<path id="Vector_8" d="M335.237 82.121H367.237" stroke="#0072BC" stroke-miterlimit="10"/>
<path id="Vector_9" d="M335.237 85.036H367.237" stroke="#0072BC" stroke-miterlimit="10"/>
<path id="Vector_10" d="M335.237 88.036H367.237" stroke="#0072BC" stroke-miterlimit="10"/>
<path id="Vector_11" d="M335.237 91.036H346.929" stroke="#0072BC" stroke-miterlimit="10"/>
<path id="Vector_12" d="M335.237 71.559H353.135" stroke="#0072BC" stroke-width="2" stroke-miterlimit="10"/>
<path id="Vector_13" d="M444.737 145.536V86.036H405.737V65.036H377.478" stroke="#0072BC" stroke-miterlimit="10"/>
<path id="Vector_14" d="M252.237 72.506H192.237V100.536H252.237V72.506Z" stroke="#0072BC" stroke-width="2" stroke-miterlimit="10"/>
<path id="Vector_15" d="M252.237 65.422H192.237V72.506H252.237V65.422Z" fill="#D5F1FA" stroke="#0072BC" stroke-width="2" stroke-miterlimit="10"/>
<path id="Vector_16" d="M232.737 81.036H198.737V94.036H232.737V81.036Z" fill="#D5F1FA" stroke="#0072BC" stroke-miterlimit="10"/>
<path id="Vector_17" d="M246.737 78.036H222.737V88.036H246.737V78.036Z" fill="#D5F1FA" stroke="#0072BC" stroke-miterlimit="10"/>
<path id="Vector_18" d="M653.237 117.536H647.237V132.536H653.237V117.536Z" fill="#D5F1FA"/>
<path id="Vector_19" d="M618.737 132.536H647.319V127.036H618.737V132.536Z" fill="#D5F1FA" stroke="#0072BC" stroke-miterlimit="10"/>
<path id="Vector_20" d="M647.319 117.536H618.737V123.036H647.319V117.536Z" fill="#D5F1FA" stroke="#0072BC" stroke-miterlimit="10"/>
<path id="Vector_21" d="M598.737 127.036H619.049V123.036H598.737V127.036Z" fill="#D5F1FA"/>
<path id="Vector_22" d="M653.237 117.536H599.237V132.536H653.237V117.536Z" stroke="#0072BC" stroke-width="2" stroke-miterlimit="10"/>
<path id="Vector_23" d="M647.237 117.536V122.536V132.536" stroke="#0072BC" stroke-width="2" stroke-miterlimit="10"/>
<path id="Vector_24" d="M618.737 117.536V122.536V132.536" stroke="#0072BC" stroke-width="0.984" stroke-miterlimit="10"/>
<path id="Vector_25" d="M598.237 123.036H647.237" stroke="#0072BC" stroke-width="0.984" stroke-miterlimit="10"/>
<path id="Vector_26" d="M598.237 127.036H647.237" stroke="#0072BC" stroke-width="0.984" stroke-miterlimit="10"/>
<path id="Vector_27" d="M421.845 145.606H483.237V187.928C483.237 188.62 482.962 189.283 482.473 189.772C481.984 190.261 481.32 190.536 480.629 190.536H421.845C421.153 190.536 420.49 190.261 420.001 189.772C419.512 189.283 419.237 188.62 419.237 187.928V148.214C419.237 147.522 419.512 146.859 420.001 146.37C420.49 145.881 421.153 145.606 421.845 145.606Z" fill="#D5F1FA" stroke="#0072BC" stroke-width="2" stroke-miterlimit="10"/>
<path id="Vector_28" d="M483.237 145.606H453.937L459.063 135.922C459.284 135.504 459.616 135.154 460.021 134.91C460.426 134.666 460.89 134.537 461.363 134.536H480.637C480.979 134.535 481.317 134.602 481.634 134.732C481.95 134.863 482.237 135.054 482.479 135.296C482.721 135.537 482.913 135.824 483.044 136.14C483.175 136.456 483.242 136.794 483.242 137.136L483.237 145.606Z" stroke="#0072BC" stroke-width="2" stroke-miterlimit="10"/>
<path id="Vector_29" d="M452.737 189.536V151.036H484.237" stroke="#0072BC" stroke-miterlimit="10"/>
<path id="Vector_30" d="M424.713 184.536H446.713" stroke="#0072BC" stroke-width="2" stroke-miterlimit="10"/>
<path id="Vector_31" d="M477.737 156.036H457.737V162.036H477.737V156.036Z" stroke="#0072BC" stroke-width="0.984" stroke-miterlimit="10"/>
<path id="Vector_32" d="M441.737 95.536V131.536" stroke="#0072BC" stroke-miterlimit="10"/>
<path id="Vector_33" d="M483.486 168.036H546.684V127.036H599.237" stroke="#0072BC" stroke-miterlimit="10"/>
<path id="Vector_34" d="M543.723 139.036V124.036H566.126" stroke="#0072BC" stroke-miterlimit="10"/>
<path id="Vector_35" d="M326.989 65.036H283.831V91.036H252.238" stroke="#0072BC" stroke-miterlimit="10"/>
<path id="Vector_36" d="M286.831 79.036V94.036H279.331" stroke="#0072BC" stroke-miterlimit="10"/>
<path id="Vector_37" d="M136.853 91.036H192.011" stroke="#0072BC" stroke-miterlimit="10"/>
<path id="Vector_38" d="M192.511 94.036H163.237" stroke="#0072BC" stroke-miterlimit="10"/>
<path id="Vector_39" d="M209.977 215.607L202.906 206.536L209.977 197.465L217.048 206.536L209.977 215.607Z" fill="#D5F1FA" stroke="#0072BC" stroke-miterlimit="10"/>
<path id="Vector_40" d="M188.977 141.607L181.906 132.536L188.977 123.465L196.048 132.536L188.977 141.607Z" fill="#D5F1FA" stroke="#0072BC" stroke-miterlimit="10"/>
<path id="Vector_41" d="M516.644 135.265L509.573 126.194L516.644 117.123L523.715 126.194L516.644 135.265Z" stroke="#0072BC" stroke-miterlimit="10"/>
<path id="Vector_42" d="M395.644 170.265L388.573 161.194L395.644 152.123L402.715 161.194L395.644 170.265Z" stroke="#0072BC" stroke-miterlimit="10"/>
<path id="Vector_43" d="M582.715 169.607L575.644 160.536L582.715 151.465L589.786 160.536L582.715 169.607Z" fill="#D5F1FA" stroke="#0072BC" stroke-miterlimit="10"/>
<path id="Vector_44" d="M424.715 50.607L417.644 41.536L424.715 32.465L431.786 41.536L424.715 50.607Z" fill="#D5F1FA" stroke="#0072BC" stroke-miterlimit="10"/>
<path id="Vector_45" d="M580.144 87.607L573.073 78.536L580.144 69.465L587.215 78.536L580.144 87.607Z" stroke="#0072BC" stroke-miterlimit="10"/>
<path id="Vector_46" d="M16.237 121.686L9.16602 112.615L16.237 103.544L23.308 112.615L16.237 121.686Z" stroke="#0072BC" stroke-miterlimit="10"/>
<path id="Vector_47" d="M593.144 94.607L589.608 90.072L593.144 85.536L596.68 90.072L593.144 94.607Z" fill="#D5F1FA" stroke="#0072BC" stroke-miterlimit="10"/>
<path id="Vector_48" d="M192.464 22.607L185.393 13.536L192.464 4.465L199.535 13.536L192.464 22.607Z" stroke="#0072BC" stroke-miterlimit="10"/>
<path id="Vector_49" d="M205.464 30.607L201.929 26.072L205.464 21.536L209 26.072L205.464 30.607Z" fill="#D5F1FA" stroke="#0072BC" stroke-miterlimit="10"/>
<path id="Vector_50" d="M383.775 149.607L380.239 145.072L383.775 140.536L387.31 145.072L383.775 149.607Z" fill="#D5F1FA" stroke="#0072BC" stroke-miterlimit="10"/>
<path id="Vector_51" d="M311.775 55.607L308.239 51.072L311.775 46.536L315.31 51.072L311.775 55.607Z" fill="#D5F1FA" stroke="#0072BC" stroke-miterlimit="10"/>
<path id="Vector_52" d="M692.644 173.072L689.108 168.536L692.644 164L696.18 168.536L692.644 173.072Z" fill="#D5F1FA" stroke="#0072BC" stroke-miterlimit="10"/>
<path id="Vector_53" d="M156.081 60.143L152.545 55.607L156.081 51.072L159.616 55.607L156.081 60.143Z" fill="#D5F1FA" stroke="#0072BC" stroke-miterlimit="10"/>
<path id="Vector_54" d="M36.2367 10.072L32.7007 5.536L36.2367 1L39.7727 5.536L36.2367 10.072Z" fill="#D5F1FA" stroke="#0072BC" stroke-miterlimit="10"/>
<path id="Vector_55" d="M576.485 184.197L572.95 179.661L576.485 175.125L580.021 179.661L576.485 184.197Z" stroke="#0072BC" stroke-miterlimit="10"/>
<path id="Vector_56" d="M205.485 152.197L201.95 147.661L205.485 143.125L209.021 147.661L205.485 152.197Z" stroke="#0072BC" stroke-miterlimit="10"/>
<path id="Vector_57" d="M439.644 64.607L436.108 60.072L439.644 55.536L443.18 60.072L439.644 64.607Z" fill="#D5F1FA" stroke="#0072BC" stroke-miterlimit="10"/>
<path id="Vector_58" d="M294.292 207.769C314.876 207.769 331.563 191.082 331.563 170.498C331.563 149.914 314.876 133.227 294.292 133.227C273.708 133.227 257.021 149.914 257.021 170.498C257.021 191.082 273.708 207.769 294.292 207.769Z" stroke="#0072BC" stroke-miterlimit="10"/>
<path id="Vector_59" d="M337.628 189.951L341.968 190.445C342.397 190.493 342.83 190.395 343.197 190.169C343.565 189.942 343.846 189.6 343.997 189.195C344.784 187.118 345.438 184.993 345.956 182.833C346.056 182.423 346.021 181.992 345.854 181.604C345.688 181.216 345.4 180.893 345.034 180.684L341.071 178.442C340.736 178.25 340.466 177.962 340.297 177.616C340.127 177.269 340.064 176.88 340.117 176.498C340.285 175.194 340.397 173.873 340.455 172.536C340.475 172.138 340.617 171.755 340.862 171.44C341.107 171.125 341.443 170.893 341.824 170.775L345.961 169.475C346.372 169.343 346.727 169.079 346.971 168.722C347.214 168.366 347.332 167.939 347.306 167.508C347.181 165.24 346.911 162.983 346.496 160.75C346.421 160.335 346.213 159.956 345.904 159.669C345.594 159.383 345.2 159.205 344.781 159.162L340.268 158.728C339.886 158.693 339.523 158.546 339.226 158.304C338.928 158.062 338.71 157.738 338.598 157.371C338.24 156.163 337.835 154.977 337.384 153.813C337.245 153.448 337.221 153.05 337.316 152.671C337.41 152.293 337.618 151.952 337.912 151.695L341.192 148.795C341.514 148.508 341.731 148.121 341.808 147.697C341.886 147.272 341.82 146.834 341.621 146.451C340.564 144.39 339.372 142.401 338.055 140.496C337.818 140.148 337.474 139.886 337.075 139.751C336.676 139.615 336.244 139.613 335.844 139.745L331.527 141.189C331.167 141.311 330.779 141.324 330.413 141.225C330.046 141.126 329.717 140.92 329.468 140.634C328.707 139.746 327.913 138.889 327.087 138.062C326.813 137.785 326.631 137.431 326.564 137.048C326.497 136.664 326.548 136.27 326.711 135.916L328.543 131.897C328.719 131.506 328.76 131.067 328.66 130.65C328.561 130.233 328.326 129.86 327.992 129.591C326.157 128.089 324.224 126.712 322.205 125.469C321.849 125.254 321.433 125.161 321.02 125.203C320.607 125.246 320.219 125.421 319.914 125.703L316.581 128.758C316.299 129.018 315.947 129.187 315.568 129.245C315.189 129.302 314.802 129.245 314.457 129.08C313.457 128.596 312.437 128.147 311.397 127.734C311.039 127.59 310.732 127.341 310.518 127.02C310.304 126.699 310.192 126.32 310.197 125.934L310.237 121.466C310.238 121.039 310.099 120.622 309.84 120.282C309.581 119.942 309.217 119.697 308.805 119.585C306.503 118.945 304.161 118.462 301.794 118.14C301.381 118.088 300.963 118.171 300.602 118.378C300.241 118.585 299.958 118.903 299.794 119.285L298 123.412C297.845 123.767 297.587 124.068 297.259 124.274C296.931 124.48 296.549 124.583 296.162 124.568C295.625 124.546 295.086 124.533 294.544 124.533C294.002 124.533 293.464 124.546 292.927 124.568C292.54 124.583 292.157 124.48 291.829 124.274C291.501 124.068 291.243 123.767 291.089 123.412L289.295 119.285C289.131 118.903 288.847 118.585 288.486 118.378C288.125 118.171 287.707 118.088 287.295 118.14C284.928 118.462 282.585 118.945 280.284 119.585C279.871 119.697 279.507 119.942 279.248 120.282C278.989 120.622 278.85 121.039 278.852 121.466L278.891 125.928C278.895 126.314 278.783 126.692 278.569 127.014C278.355 127.335 278.049 127.584 277.691 127.728C276.651 128.139 275.63 128.588 274.63 129.074C274.284 129.239 273.897 129.296 273.519 129.239C273.14 129.181 272.788 129.012 272.507 128.752L269.173 125.697C268.868 125.415 268.48 125.24 268.067 125.198C267.654 125.155 267.238 125.248 266.883 125.463C264.863 126.706 262.93 128.083 261.096 129.585C260.762 129.854 260.527 130.227 260.427 130.644C260.327 131.061 260.369 131.5 260.545 131.891L262.377 135.91C262.54 136.264 262.591 136.658 262.524 137.042C262.456 137.425 262.274 137.779 262.001 138.056C261.175 138.883 260.381 139.74 259.619 140.628C259.369 140.914 259.04 141.12 258.674 141.219C258.307 141.318 257.919 141.305 257.56 141.183L253.237 139.736C252.837 139.604 252.405 139.606 252.006 139.742C251.607 139.877 251.263 140.139 251.026 140.487C249.708 142.392 248.517 144.381 247.46 146.442C247.26 146.825 247.194 147.263 247.272 147.688C247.35 148.112 247.567 148.499 247.889 148.786L251.169 151.686C251.462 151.943 251.67 152.284 251.764 152.662C251.859 153.041 251.835 153.439 251.697 153.804C251.245 154.967 250.84 156.153 250.482 157.362C250.37 157.728 250.151 158.053 249.854 158.295C249.557 158.537 249.194 158.684 248.813 158.719L244.3 159.153C243.88 159.195 243.486 159.373 243.176 159.66C242.866 159.946 242.658 160.326 242.584 160.741C242.17 162.974 241.899 165.231 241.775 167.499C241.748 167.93 241.866 168.357 242.109 168.713C242.353 169.07 242.709 169.335 243.12 169.466L247.256 170.766C247.637 170.884 247.973 171.116 248.218 171.431C248.463 171.746 248.605 172.129 248.626 172.527C248.683 173.86 248.796 175.181 248.964 176.489C249.016 176.871 248.954 177.26 248.784 177.607C248.614 177.953 248.344 178.241 248.01 178.433L244.046 180.675C243.68 180.885 243.392 181.208 243.226 181.595C243.059 181.983 243.024 182.414 243.125 182.824C243.643 184.984 244.297 187.109 245.083 189.186C245.233 189.591 245.515 189.934 245.883 190.16C246.251 190.387 246.683 190.484 247.113 190.436L251.453 189.942C251.85 189.899 252.251 189.98 252.601 190.173C252.95 190.366 253.232 190.662 253.408 191.021C254.038 192.282 254.722 193.509 255.462 194.702C255.67 195.031 255.775 195.416 255.762 195.806C255.749 196.195 255.619 196.572 255.389 196.887L252.708 200.51C252.457 200.852 252.326 201.266 252.332 201.689C252.339 202.113 252.484 202.523 252.746 202.856C254.083 204.576 255.524 206.213 257.062 207.756C257.364 208.063 257.76 208.261 258.188 208.317C258.615 208.374 259.049 208.287 259.421 208.069L263.189 205.85C263.526 205.65 263.916 205.558 264.308 205.587C264.699 205.616 265.071 205.764 265.376 206.011C266.536 206.966 267.744 207.864 268.999 208.705C269.317 208.921 269.563 209.228 269.705 209.586C269.846 209.943 269.876 210.336 269.792 210.711L268.822 215.085C268.732 215.501 268.781 215.934 268.962 216.32C269.142 216.705 269.444 217.02 269.822 217.216C271.721 218.223 273.68 219.113 275.688 219.881C276.088 220.036 276.529 220.054 276.941 219.932C277.353 219.809 277.713 219.554 277.964 219.205L280.519 215.623C280.744 215.305 281.06 215.063 281.427 214.93C281.793 214.796 282.191 214.777 282.568 214.876C284.062 215.277 285.576 215.602 287.104 215.849C287.486 215.914 287.84 216.093 288.119 216.363C288.397 216.634 288.587 216.982 288.663 217.363L289.548 221.708C289.633 222.125 289.853 222.501 290.174 222.78C290.495 223.059 290.898 223.225 291.323 223.251C292.388 223.319 293.462 223.357 294.545 223.357C295.628 223.357 296.702 223.319 297.768 223.251C298.192 223.225 298.596 223.059 298.917 222.78C299.238 222.501 299.458 222.125 299.543 221.708L300.427 217.363C300.503 216.982 300.692 216.634 300.971 216.364C301.249 216.093 301.603 215.914 301.986 215.849C303.514 215.602 305.028 215.277 306.523 214.876C306.9 214.777 307.297 214.796 307.663 214.93C308.029 215.063 308.346 215.305 308.571 215.623L311.126 219.205C311.377 219.554 311.737 219.809 312.149 219.932C312.561 220.054 313.002 220.036 313.403 219.881C315.41 219.113 317.37 218.223 319.269 217.216C319.646 217.02 319.948 216.705 320.129 216.32C320.31 215.934 320.359 215.501 320.269 215.085L319.299 210.711C319.214 210.336 319.244 209.943 319.386 209.586C319.527 209.228 319.773 208.921 320.092 208.705C321.344 207.866 322.551 206.968 323.715 206.011C324.019 205.764 324.392 205.616 324.783 205.587C325.174 205.558 325.564 205.65 325.902 205.85L329.669 208.069C330.041 208.287 330.475 208.374 330.902 208.317C331.33 208.261 331.726 208.063 332.029 207.756C333.566 206.213 335.007 204.576 336.344 202.856C336.606 202.523 336.751 202.113 336.758 201.69C336.765 201.266 336.633 200.852 336.383 200.51L333.702 196.887C333.472 196.572 333.341 196.196 333.328 195.806C333.315 195.416 333.419 195.032 333.628 194.702C334.367 193.51 335.052 192.283 335.683 191.021C335.859 190.665 336.14 190.372 336.487 190.181C336.835 189.99 337.233 189.909 337.628 189.951Z" stroke="#0072BC" stroke-miterlimit="10"/>
<path id="Vector_60" d="M77.5098 176.036H92.5807L101.121 223.536H68.9688L77.5098 176.036Z" fill="#D5F1FA" stroke="#0072BC" stroke-miterlimit="10"/>
<path id="Vector_61" d="M108.069 133.336L110.754 109.658L115.302 99.42C122.765 94.65 125.333 79.428 120.628 76.065C125.652 50.946 126.657 29.846 105.055 25.324C90.4848 16.784 75.9158 18.291 60.3428 24.324C47.2808 31.356 41.2518 40.901 38.7368 52.958L43.7608 78.077C37.7328 80.589 41.8548 99.423 48.8228 102.377C52.6608 105.047 53.1778 112.692 55.6898 133.29L85.0418 151.149L108.069 133.336Z" fill="#D5F1FA"/>
<path id="Vector_62" d="M168.543 223.536H2.03688L1.00188 174.388C0.965667 172.662 1.45326 170.965 2.40043 169.521C3.34759 168.077 4.7099 166.954 6.30788 166.3L48.7849 148.913L55.6899 133.286C53.1779 112.686 52.6609 105.043 48.8229 102.373C41.8549 99.423 37.7329 80.589 43.7609 78.073L38.7369 52.958C41.2489 40.901 47.2779 31.358 60.3369 24.323C75.9099 18.294 90.4789 16.787 105.049 25.323C126.649 29.845 125.649 50.945 120.622 76.064C125.327 79.427 122.759 94.649 115.296 99.419L110.748 109.657L108.069 133.336L118.619 148.91L164.882 166.678C166.426 167.271 167.752 168.323 168.682 169.692C169.611 171.06 170.1 172.681 170.082 174.335L168.543 223.536Z" stroke="#0072BC" stroke-width="2" stroke-miterlimit="10"/>
<path id="Vector_63" d="M72.917 164.42L85.045 155.164L98.647 163.739L92.581 176.036H77.51L72.917 164.42Z" fill="#D5F1FA" stroke="#0072BC" stroke-miterlimit="10"/>
<path id="Vector_64" d="M56.32 133.013L85.045 151.145L107.987 134.369L118.719 149.523L108.155 169.733L85.045 155.164L65.955 169.733L49.917 148.872L56.32 133.013Z" stroke="#0072BC" stroke-miterlimit="10"/>
<path id="Vector_65" d="M116.393 203.036H154.617" stroke="#0072BC" stroke-miterlimit="10"/>
<path id="Vector_66" d="M52.8989 103.265C52.8989 103.265 63.6789 133.013 84.4809 133.013C103.24 133.013 111.653 106.513 111.653 106.513" stroke="#0072BC" stroke-miterlimit="10"/>
<path id="Vector_67" d="M116.393 85.336C116.393 85.336 115.633 73.912 121.719 74.787" stroke="#0072BC" stroke-miterlimit="10"/>
<path id="Vector_68" d="M52.899 85.336L49.917 54.375C68.001 56.653 85.082 54.828 100.532 46.33L114.913 58.521L111.653 85.332" stroke="#0072BC" stroke-miterlimit="10"/>
<path id="Vector_69" d="M44.855 76.792C44.855 76.792 49.146 76.764 49.917 85.332" stroke="#0072BC" stroke-miterlimit="10"/>
<path id="Vector_70" d="M335.237 79.121H367.237" stroke="#0072BC" stroke-miterlimit="10"/>
</g>
</svg>
