<svg width="88" height="105" viewBox="0 0 88 105" fill="none" xmlns="http://www.w3.org/2000/svg">
<path d="M78.9641 26.071L71.8931 17L78.9641 7.92896L86.0351 17L78.9641 26.071Z" fill="#D5F1FA" stroke="#0072BC" stroke-width="2" stroke-miterlimit="10"/>
<path d="M65.964 11.071L62.429 6.535L65.964 2L69.5 6.535L65.964 11.071Z" fill="#D5F1FA" stroke="#0072BC" stroke-width="2" stroke-miterlimit="10"/>
<path d="M77.994 39.116V95.479C77.994 97.7389 77.0963 99.9063 75.4983 101.504C73.9003 103.102 71.7329 104 69.473 104H9.52C8.40068 104 7.29231 103.78 6.25823 103.351C5.22415 102.923 4.28464 102.295 3.49339 101.503C2.70214 100.711 2.07467 99.7715 1.64685 98.7372C1.21902 97.7028 0.999214 96.5943 1 95.475L1.044 26.521C1.044 24.2611 1.94175 22.0937 3.53975 20.4957C5.13774 18.8977 7.30509 18 9.565 18H57.935L77.994 39.116Z" fill="#D5F1FA" stroke="#0072BC" stroke-width="2" stroke-miterlimit="10"/>
<path d="M77.9941 39.116H64.3731C63.5275 39.116 62.6903 38.9494 61.9091 38.6258C61.128 38.3022 60.4182 37.8279 59.8204 37.23C59.2225 36.6321 58.7483 35.9222 58.4248 35.141C58.1014 34.3598 57.9349 33.5225 57.9351 32.677V18" stroke="#0072BC" stroke-width="2" stroke-miterlimit="10"/>
<path d="M25.9939 52H63.9939" stroke="#0072BC" stroke-width="2" stroke-miterlimit="10"/>
<path d="M13.9939 35.949H42.9589" stroke="#0072BC" stroke-width="2" stroke-miterlimit="10"/>
<path d="M13.9939 31H25.8689" stroke="#0072BC" stroke-width="2" stroke-miterlimit="10"/>
<path d="M29.0649 31H47.2089" stroke="#0072BC" stroke-width="2" stroke-miterlimit="10"/>
<path d="M25.9939 65H63.9939" stroke="#0072BC" stroke-width="2" stroke-miterlimit="10"/>
<path d="M25.9939 78H63.9939" stroke="#0072BC" stroke-width="2" stroke-miterlimit="10"/>
<path d="M25.9939 91H63.9939" stroke="#0072BC" stroke-width="2" stroke-miterlimit="10"/>
<path d="M22.2141 45.667L15.4581 54.333L11.9231 49.798" stroke="#0072BC" stroke-width="2" stroke-miterlimit="10"/>
<path d="M22.2141 59.667L15.4581 68.333L11.9231 63.798" stroke="#0072BC" stroke-width="2" stroke-miterlimit="10"/>
<path d="M22.2141 72.667L15.4581 81.333L11.9231 76.798" stroke="#0072BC" stroke-width="2" stroke-miterlimit="10"/>
</svg>
