<svg width="811" height="232" viewBox="0 0 811 232" fill="none" xmlns="http://www.w3.org/2000/svg">
<g id="Group">
<path id="Vector" d="M312.5 151V124" stroke="#0072BC" stroke-miterlimit="10"/>
<path id="Vector_2" d="M390 124.5H316.5V189H270.5" stroke="#0072BC" stroke-miterlimit="10"/>
<path id="Vector_3" d="M402.8 88.0998C402.4 88.7998 402 89.4998 401.6 90.1998C401.4 90.5998 401.4 91.0998 401.6 91.4998L401.9 91.8998L404.4 87.5998L403.9 87.4998C403.5 87.4998 403 87.6998 402.8 88.0998ZM440.2 74.6998L397.1 46.1998C395.7 45.2998 394 44.2998 392.3 43.5998C374.6 35.4998 353.6 43.2998 345.5 60.9998C337.4 78.6998 345.2 99.6998 362.9 107.8L409.8 129.3C423.6 135.6 440.4 131.2 449 118.1C458.6 103.7 454.6 84.1998 440.2 74.6998ZM445.8 105C445.6 106.7 445.1 108.3 444.5 109.8L448.2 111.9L445.2 117.1L441.5 115C440.5 116.3 439.3 117.5 438 118.5L440.1 122.2L434.9 125.2L432.8 121.5C431.3 122.1 429.7 122.5 428 122.8V127H422V122.8C420.3 122.6 418.7 122.1 417.2 121.5L415.1 125.2L409.9 122.2L412 118.5C410.7 117.5 409.5 116.3 408.5 115L404.8 117.1L401.8 111.9L405.5 109.8C404.9 108.3 404.5 106.7 404.2 105H400V98.9998H404.2C404.4 97.2998 404.9 95.6998 405.5 94.1998L402.3 92.2998L403.3 93.5998C403.6 93.9998 403.6 94.5998 403.3 94.9998C402.5 95.9998 401.7 96.8998 400.8 97.7998C400.4 98.1998 399.9 98.1998 399.4 97.9998L397.2 96.6998C396.8 96.4998 396.3 96.4998 395.9 96.7998C395.2 97.3998 394.5 97.8998 393.8 98.3998C393.4 98.6998 393.2 99.0998 393.3 99.5998L393.9 102.1C394 102.6 393.8 103.1 393.3 103.3C392.2 103.9 391.1 104.4 389.9 104.8C389.4 105 388.9 104.8 388.6 104.4L387.1 102.3C386.8 101.9 386.4 101.7 385.9 101.9C385 102.1 384.2 102.3 383.3 102.5C382.8 102.6 382.5 102.9 382.4 103.4L381.9 105.9C381.8 106.4 381.4 106.8 380.9 106.8C380.3 106.8 379.7 106.9 379 106.9C378.3 106.9 377.8 106.9 377.1 106.8C376.6 106.8 376.2 106.4 376.1 105.9L375.6 103.4C375.5 103 375.2 102.6 374.7 102.5C373.8 102.4 372.9 102.2 372.1 101.9C371.7 101.8 371.2 102 370.9 102.3L369.4 104.4C369.1 104.8 368.6 105 368.1 104.8C366.9 104.4 365.8 103.8 364.7 103.3C364.3 103.1 364 102.6 364.1 102.1L364.7 99.5998C364.8 99.1998 364.6 98.6998 364.2 98.3998C363.5 97.8998 362.8 97.3998 362.1 96.7998C361.7 96.4998 361.2 96.4998 360.8 96.6998L358.6 97.9998C358.2 98.2998 357.6 98.1998 357.2 97.7998C356.3 96.8998 355.5 95.9998 354.7 94.9998C354.4 94.5998 354.4 93.9998 354.7 93.5998L356.2 91.4998C356.5 91.0998 356.5 90.5998 356.2 90.1998C355.8 89.4998 355.4 88.7998 355 88.0998C354.8 87.6998 354.3 87.3998 353.9 87.4998L351.4 87.7998C350.9 87.8998 350.4 87.5998 350.2 87.0998C349.7 85.8998 349.4 84.6998 349.1 83.3998C349 82.8998 349.2 82.3998 349.6 82.1998L351.9 80.8998C352.3 80.6998 352.5 80.1998 352.5 79.7998C352.4 78.9998 352.3 78.2998 352.3 77.4998C352.3 76.9998 352 76.5998 351.5 76.4998L349.1 75.6998C348.6 75.4998 348.3 75.0998 348.3 74.5998C348.4 73.2998 348.5 71.9998 348.8 70.6998C348.9 70.1998 349.3 69.7998 349.8 69.7998L352.4 69.4998C352.9 69.4998 353.2 69.0998 353.4 68.6998C353.6 67.9998 353.8 67.2998 354.1 66.5998C354.3 66.1998 354.1 65.6998 353.8 65.3998L351.9 63.6998C351.5 63.3998 351.4 62.7998 351.7 62.2998C352.3 61.0998 353 59.9998 353.8 58.8998C354.1 58.4998 354.6 58.2998 355.1 58.4998L357.6 59.2998C358 59.3998 358.5 59.2998 358.8 58.9998C359.2 58.4998 359.7 57.9998 360.2 57.4998C360.5 57.1998 360.6 56.6998 360.4 56.2998L359.3 53.9998C359.1 53.4998 359.2 52.9998 359.6 52.6998C360.7 51.7998 361.8 50.9998 362.9 50.2998C363.3 49.9998 363.9 50.0998 364.2 50.3998L366.1 52.1998C366.4 52.4998 366.9 52.5998 367.3 52.3998C367.9 52.0998 368.5 51.8998 369.1 51.5998C369.5 51.3998 369.8 50.9998 369.8 50.5998V47.9998C369.8 47.4998 370.1 46.9998 370.6 46.8998C371.9 46.4998 373.3 46.2998 374.7 46.0998C375.2 45.9998 375.7 46.2998 375.9 46.7998L376.9 49.1998C377.1 49.5998 377.5 49.8998 378 49.8998C378.3 49.8998 378.6 49.8998 378.9 49.8998C379.2 49.8998 379.5 49.8998 379.8 49.8998C380.3 49.8998 380.7 49.6998 380.9 49.1998L381.9 46.7998C382.1 46.2998 382.6 46.0998 383.1 46.0998C384.5 46.2998 385.8 46.5998 387.2 46.8998C387.7 46.9998 388 47.4998 388 47.9998V50.5998C388 51.0998 388.3 51.4998 388.7 51.5998C389.3 51.7998 389.9 52.0998 390.5 52.3998C390.9 52.5998 391.4 52.4998 391.7 52.1998L393.6 50.3998C394 50.0998 394.5 49.9998 394.9 50.2998C396.1 50.9998 397.2 51.7998 398.2 52.6998C398.6 52.9998 398.7 53.5998 398.5 53.9998L397.4 56.2998C397.2 56.6998 397.3 57.1998 397.6 57.4998C398.1 57.9998 398.5 58.4998 399 58.9998C399.3 59.2998 399.8 59.4998 400.2 59.2998L402.7 58.4998C403.2 58.2998 403.7 58.4998 404 58.8998C404.8 59.9998 405.4 61.0998 406.1 62.2998C406.3 62.7998 406.2 63.2998 405.9 63.6998L404 65.3998C403.7 65.6998 403.5 66.1998 403.7 66.5998C404 67.2998 404.2 67.9998 404.4 68.6998C404.5 69.0998 404.9 69.3998 405.4 69.4998L408 69.7998C408.5 69.7998 408.9 70.1998 409 70.6998C409.2 71.9998 409.4 73.2998 409.5 74.5998C409.5 75.0998 409.2 75.5998 408.7 75.6998L406.3 76.4998C405.9 76.5998 405.5 76.9998 405.5 77.4998C405.5 78.2998 405.4 78.9998 405.3 79.7998C405.2 80.2998 405.5 80.6998 405.9 80.8998L408.2 82.1998C408.6 82.3998 408.8 82.9998 408.7 83.3998C408.4 84.6998 408 85.8998 407.6 87.0998C407.4 87.5998 406.9 87.8998 406.4 87.7998L408.5 88.9998C409.5 87.6998 410.7 86.4998 412 85.4998L409.9 81.7998L415.1 78.7998L417.2 82.4998C418.7 81.8998 420.3 81.4998 422 81.1998V76.9998H428V81.1998C429.7 81.3998 431.3 81.8998 432.8 82.4998L434.9 78.7998L440.1 81.7998L438 85.4998C439.3 86.4998 440.5 87.6998 441.5 88.9998L445.2 86.8998L448.2 92.0998L444.5 94.1998C445.1 95.6998 445.5 97.2998 445.8 98.9998H450V105H445.8Z" fill="#D5F1FA"/>
<path id="Vector_4" d="M450.8 78.6998L528.2 56.9998C534.1 55.2998 540.2 58.7998 541.8 64.5998C543.4 70.1998 540.3 76.0998 534.9 77.9998L460 104.6" stroke="#0072BC" stroke-width="2" stroke-miterlimit="10"/>
<g id="Group_2">
<path id="Vector_5" d="M397.1 46.1998L440.2 74.6998C454.6 84.1998 458.6 103.7 449.1 118.1C440.5 131.2 423.7 135.6 409.9 129.3L363 107.8C345.3 99.6998 337.5 78.6998 345.6 60.9998C353.7 43.2998 374.7 35.4998 392.4 43.5998C394 44.2998 395.7 45.2998 397.1 46.1998Z" stroke="#0072BC" stroke-miterlimit="10"/>
</g>
<g id="Group 2">
<path id="Vector_6" d="M511.6 158L509.9 159.7C509.9 159.7 510.5 167.8 514.8 172.1C519.1 176.4 525.8 177.4 532.7 170.5C539.6 163.6 538.7 156.9 534.3 152.6C530 148.3 521.9 147.7 521.9 147.7L520.2 149.4L528.9 158.1C528.9 160.9 523.1 166.8 520.2 166.8L511.6 158Z" stroke="#0072BC" stroke-width="2" stroke-miterlimit="10"/>
<path id="Vector_7" d="M560.4 206.8L530 173.2L535.4 167.8L568.5 198.7C574.2 204.3 566.1 212.5 560.4 206.8Z" stroke="#0072BC" stroke-width="2" stroke-miterlimit="10"/>
</g>
<path id="Vector_8" d="M208 205H7C3.7 205 1 202.3 1 199V53C1 49.7 3.7 47 7 47H208C211.3 47 214 49.7 214 53V199C214 202.3 211.3 205 208 205Z" stroke="#0072BC" stroke-width="2" stroke-miterlimit="10"/>
<path id="Vector_9" d="M204.5 56.5H10.5V182.5H204.5V56.5Z" fill="#D5F1FA" stroke="#0072BC" stroke-miterlimit="10"/>
<path id="Vector_10" d="M17 88.8999H114" stroke="#0072BC" stroke-width="2" stroke-miterlimit="10"/>
<path id="Vector_11" d="M23 105H76" stroke="#0072BC" stroke-width="2" stroke-miterlimit="10"/>
<path id="Vector_12" d="M23 113H70" stroke="#0072BC" stroke-width="2" stroke-miterlimit="10"/>
<path id="Vector_13" d="M23 118H43" stroke="#0072BC" stroke-width="2" stroke-miterlimit="10"/>
<path id="Vector_14" d="M45 118H57" stroke="#0072BC" stroke-width="2" stroke-miterlimit="10"/>
<path id="Vector_15" d="M44 127H60" stroke="#0072BC" stroke-width="2" stroke-miterlimit="10"/>
<path id="Vector_16" d="M44 132H64" stroke="#0072BC" stroke-width="2" stroke-miterlimit="10"/>
<path id="Vector_17" d="M44 137H60" stroke="#0072BC" stroke-width="2" stroke-miterlimit="10"/>
<path id="Vector_18" d="M32 127H42" stroke="#0072BC" stroke-width="2" stroke-miterlimit="10"/>
<path id="Vector_19" d="M17 84H39.9" stroke="#0072BC" stroke-width="2" stroke-miterlimit="10"/>
<path id="Vector_20" d="M43.1001 84H94.0001" stroke="#0072BC" stroke-width="2" stroke-miterlimit="10"/>
<path id="Vector_21" d="M23 99.8999H40" stroke="#0072BC" stroke-width="2" stroke-miterlimit="10"/>
<path id="Vector_22" d="M23 95H34.9" stroke="#0072BC" stroke-width="2" stroke-miterlimit="10"/>
<path id="Vector_23" d="M38.1001 95H53.0001" stroke="#0072BC" stroke-width="2" stroke-miterlimit="10"/>
<path id="Vector_24" d="M17 70H95" stroke="#0072BC" stroke-width="2" stroke-miterlimit="10"/>
<path id="Vector_25" d="M17 75H57" stroke="#0072BC" stroke-width="2" stroke-miterlimit="10"/>
<path id="Vector_26" d="M17 64H57" stroke="#0072BC" stroke-width="2" stroke-miterlimit="10"/>
<path id="Vector_27" d="M63 64H77" stroke="#0072BC" stroke-width="2" stroke-miterlimit="10"/>
<path id="Vector_28" d="M136.8 223H80.7998L82.7998 205H132.8L136.8 223Z" stroke="#0072BC" stroke-width="2" stroke-miterlimit="10"/>
<path id="Vector_29" d="M165 223H53V229H165V223Z" stroke="#0072BC" stroke-width="2" stroke-miterlimit="10"/>
<path id="Vector_30" d="M193 205V229H261V75H214" stroke="#0072BC" stroke-width="2" stroke-miterlimit="10"/>
<path id="Vector_31" d="M250 95H214" stroke="#0072BC" stroke-width="2" stroke-miterlimit="10"/>
<path id="Vector_32" d="M250 107H214" stroke="#0072BC" stroke-width="2" stroke-miterlimit="10"/>
<g id="Group_3">
<path id="Vector_33" d="M244 173L251 180" stroke="#0072BC" stroke-miterlimit="10"/>
<path id="Vector_34" d="M251 173L244 180" stroke="#0072BC" stroke-miterlimit="10"/>
</g>
<g id="Group_4">
<path id="Vector_35" d="M244 159L251 166" stroke="#0072BC" stroke-miterlimit="10"/>
<path id="Vector_36" d="M251 159L244 166" stroke="#0072BC" stroke-miterlimit="10"/>
</g>
<g id="Group_5">
<path id="Vector_37" d="M378.9 94.6C389.006 94.6 397.2 86.4068 397.2 76.3C397.2 66.1932 389.006 58 378.9 58C368.793 58 360.6 66.1932 360.6 76.3C360.6 86.4068 368.793 94.6 378.9 94.6Z" stroke="#0072BC" stroke-miterlimit="10"/>
<path id="Vector_38" d="M403.9 87.5002L406.4 87.8002C406.9 87.9002 407.4 87.6002 407.6 87.1002C408.1 85.9002 408.4 84.7002 408.7 83.4002C408.8 82.9002 408.6 82.4002 408.2 82.2002L405.9 80.9002C405.5 80.7002 405.3 80.2002 405.3 79.8002C405.4 79.0002 405.5 78.3002 405.5 77.5002C405.5 77.0002 405.8 76.6002 406.3 76.5002L408.7 75.7002C409.2 75.5002 409.5 75.1002 409.5 74.6002C409.4 73.3002 409.3 72.0002 409 70.7002C408.9 70.2002 408.5 69.8002 408 69.8002L405.4 69.5002C404.9 69.5002 404.6 69.1002 404.4 68.7002C404.2 68.0002 404 67.3002 403.7 66.6002C403.5 66.2002 403.7 65.7002 404 65.4002L405.9 63.7002C406.3 63.4002 406.4 62.8002 406.1 62.3002C405.5 61.1002 404.8 60.0002 404 58.9002C403.7 58.5002 403.2 58.3002 402.7 58.5002L400.2 59.3002C399.8 59.4002 399.3 59.3002 399 59.0002C398.6 58.5002 398.1 58.0002 397.6 57.5002C397.3 57.2002 397.2 56.7002 397.4 56.3002L398.5 54.0002C398.7 53.5002 398.6 53.0002 398.2 52.7002C397.1 51.8002 396 51.0002 394.9 50.3002C394.5 50.0002 393.9 50.1002 393.6 50.4002L391.7 52.2002C391.4 52.5002 390.9 52.6002 390.5 52.4002C389.9 52.1002 389.3 51.9002 388.7 51.6002C388.3 51.4002 388 51.0002 388 50.6002V48.0002C388 47.5002 387.7 47.0002 387.2 46.9002C385.9 46.5002 384.5 46.3002 383.1 46.1002C382.6 46.0002 382.1 46.3002 381.9 46.8002L380.9 49.2002C380.7 49.6002 380.3 49.9002 379.8 49.9002C379.5 49.9002 379.2 49.9002 378.9 49.9002C378.6 49.9002 378.3 49.9002 378 49.9002C377.5 49.9002 377.1 49.7002 376.9 49.2002L375.9 46.8002C375.7 46.3002 375.2 46.1002 374.7 46.1002C373.3 46.3002 372 46.6002 370.6 46.9002C370.1 47.0002 369.8 47.5002 369.8 48.0002V50.6002C369.8 51.1002 369.5 51.5002 369.1 51.6002C368.5 51.8002 367.9 52.1002 367.3 52.4002C366.9 52.6002 366.4 52.5002 366.1 52.2002L364.2 50.4002C363.8 50.1002 363.3 50.0002 362.9 50.3002C361.7 51.0002 360.6 51.8002 359.6 52.7002C359.2 53.0002 359.1 53.6002 359.3 54.0002L360.4 56.3002C360.6 56.7002 360.5 57.2002 360.2 57.5002C359.7 58.0002 359.3 58.5002 358.8 59.0002C358.5 59.3002 358 59.5002 357.6 59.3002L355.1 58.5002C354.6 58.3002 354.1 58.5002 353.8 58.9002C353 60.0002 352.4 61.1002 351.7 62.3002C351.5 62.8002 351.6 63.3002 351.9 63.7002L353.8 65.4002C354.1 65.7002 354.3 66.2002 354.1 66.6002C353.8 67.3002 353.6 68.0002 353.4 68.7002C353.3 69.1002 352.9 69.4002 352.4 69.5002L349.8 69.8002C349.3 69.8002 348.9 70.2002 348.8 70.7002C348.6 72.0002 348.4 73.3002 348.3 74.6002C348.3 75.1002 348.6 75.6002 349.1 75.7002L351.5 76.5002C351.9 76.6002 352.3 77.0002 352.3 77.5002C352.3 78.3002 352.4 79.0002 352.5 79.8002C352.6 80.3002 352.3 80.7002 351.9 80.9002L349.6 82.2002C349.2 82.4002 349 83.0002 349.1 83.4002C349.4 84.7002 349.8 85.9002 350.2 87.1002C350.4 87.6002 350.9 87.9002 351.4 87.8002L353.9 87.5002C354.4 87.4002 354.8 87.7002 355 88.1002C355.4 88.8002 355.8 89.5002 356.2 90.2002C356.4 90.6002 356.4 91.1002 356.2 91.5002L354.7 93.6002C354.4 94.0002 354.4 94.6002 354.7 95.0002C355.5 96.0002 356.3 96.9002 357.2 97.8002C357.6 98.2002 358.1 98.2002 358.6 98.0002L360.8 96.7002C361.2 96.5002 361.7 96.5002 362.1 96.8002C362.8 97.4002 363.5 97.9002 364.2 98.4002C364.6 98.7002 364.8 99.1002 364.7 99.6002L364.1 102.1C364 102.6 364.2 103.1 364.7 103.3C365.8 103.9 366.9 104.4 368.1 104.8C368.6 105 369.1 104.8 369.4 104.4L370.9 102.3C371.2 101.9 371.6 101.7 372.1 101.9C373 102.1 373.8 102.3 374.7 102.5C375.2 102.6 375.5 102.9 375.6 103.4L376.1 105.9C376.2 106.4 376.6 106.8 377.1 106.8C377.7 106.8 378.3 106.9 379 106.9C379.6 106.9 380.2 106.9 380.9 106.8C381.4 106.8 381.8 106.4 381.9 105.9L382.4 103.4C382.5 103 382.8 102.6 383.3 102.5C384.2 102.4 385.1 102.2 385.9 101.9C386.3 101.8 386.8 102 387.1 102.3L388.6 104.4C388.9 104.8 389.4 105 389.9 104.8C391.1 104.4 392.2 103.8 393.3 103.3C393.7 103.1 394 102.6 393.9 102.1L393.3 99.6002C393.2 99.2002 393.4 98.7002 393.8 98.4002C394.5 97.9002 395.2 97.4002 395.9 96.8002C396.3 96.5002 396.8 96.5002 397.2 96.7002L399.4 98.0002C399.8 98.3002 400.4 98.2002 400.8 97.8002C401.7 96.9002 402.5 96.0002 403.3 95.0002C403.6 94.6002 403.6 94.0002 403.3 93.6002L401.8 91.5002C401.5 91.1002 401.5 90.6002 401.8 90.2002C402.2 89.5002 402.6 88.8002 403 88.1002C403 87.7002 403.5 87.5002 403.9 87.5002Z" stroke="#0072BC" stroke-width="2" stroke-miterlimit="10"/>
<g id="Group_6">
<path id="Vector_39" d="M449 105C449.5 105 450 104.6 450 104V100C450 99.4 449.5 99 449 99H446.8C446.3 99 445.7 98.6 445.6 98L444.8 95.1C444.6 94.6 444.9 93.9 445.4 93.7L447.3 92.6C447.8 92.3 447.9 91.7 447.7 91.2L445.7 87.7C445.4 87.2 444.8 87.1 444.3 87.3L442.4 88.4C441.9 88.7 441.2 88.6 440.9 88.2L438.8 86.1C438.4 85.7 438.3 85 438.6 84.6L439.7 82.7C440 82.2 439.8 81.6 439.3 81.3L435.8 79.3C435.3 79 434.7 79.2 434.4 79.7L433.3 81.6C433 82.1 432.4 82.3 431.9 82.2L429 81.4C428.5 81.3 428 80.8 428 80.2V78C428 77.4 427.5 77 427 77H423C422.5 77 422 77.4 422 78V80.2C422 80.8 421.6 81.3 421 81.4L418.1 82.2C417.6 82.4 416.9 82.1 416.7 81.6L415.6 79.7C415.3 79.2 414.7 79.1 414.2 79.3L410.7 81.3C410.2 81.6 410.1 82.2 410.3 82.7L411.4 84.6C411.7 85.1 411.6 85.8 411.2 86.1L409.1 88.2C408.7 88.6 408 88.7 407.6 88.4L405.7 87.3C405.2 87 404.6 87.2 404.3 87.7L402.3 91.2C402 91.7 402.2 92.3 402.7 92.6L404.6 93.7C405.1 94 405.3 94.6 405.2 95.1L404.4 98C404.3 98.5 403.8 99 403.2 99H401C400.5 99 400 99.4 400 100V104C400 104.6 400.5 105 401 105H403.2C403.7 105 404.3 105.4 404.4 106L405.2 108.9C405.4 109.4 405.1 110.1 404.6 110.3L402.7 111.4C402.2 111.7 402.1 112.3 402.3 112.8L404.3 116.3C404.6 116.8 405.2 116.9 405.7 116.7L407.6 115.6C408.1 115.3 408.8 115.4 409.1 115.8L411.2 117.9C411.6 118.3 411.7 119 411.4 119.4L410.3 121.3C410 121.8 410.2 122.4 410.7 122.7L414.2 124.7C414.7 125 415.3 124.8 415.6 124.3L416.7 122.4C417 121.9 417.6 121.7 418.1 121.8L421 122.6C421.5 122.7 422 123.2 422 123.8V126C422 126.6 422.5 127 423 127H427C427.5 127 428 126.6 428 126V123.8C428 123.2 428.4 122.7 429 122.6L431.9 121.8C432.4 121.6 433.1 121.9 433.3 122.4L434.4 124.3C434.7 124.8 435.3 124.9 435.8 124.7L439.3 122.7C439.8 122.4 439.9 121.8 439.7 121.3L438.6 119.4C438.3 118.9 438.4 118.2 438.8 117.9L440.9 115.8C441.3 115.4 442 115.3 442.4 115.6L444.3 116.7C444.8 117 445.4 116.8 445.7 116.3L447.7 112.8C448 112.3 447.8 111.7 447.3 111.4L445.4 110.3C444.9 110 444.7 109.4 444.8 108.9L445.6 106C445.7 105.5 446.2 105 446.8 105H449V105Z" stroke="#0072BC" stroke-width="2" stroke-miterlimit="10"/>
</g>
<path id="Vector_40" d="M425 117C433.284 117 440 110.284 440 102C440 93.7157 433.284 87 425 87C416.716 87 410 93.7157 410 102C410 110.284 416.716 117 425 117Z" stroke="#0072BC" stroke-miterlimit="10"/>
</g>
<path id="Vector_41" d="M425 107C427.761 107 430 104.761 430 102C430 99.2386 427.761 97 425 97C422.239 97 420 99.2386 420 102C420 104.761 422.239 107 425 107Z" stroke="#0072BC" stroke-width="2" stroke-miterlimit="10"/>
<path id="Vector_42" d="M379.5 81.5C382.261 81.5 384.5 79.2614 384.5 76.5C384.5 73.7386 382.261 71.5 379.5 71.5C376.739 71.5 374.5 73.7386 374.5 76.5C374.5 79.2614 376.739 81.5 379.5 81.5Z" stroke="#0072BC" stroke-width="2" stroke-miterlimit="10"/>
<path id="Vector_43" d="M530 74.5C533.59 74.5 536.5 71.5899 536.5 68C536.5 64.4101 533.59 61.5 530 61.5C526.41 61.5 523.5 64.4101 523.5 68C523.5 71.5899 526.41 74.5 530 74.5Z" fill="#D5F1FA" stroke="#0072BC" stroke-miterlimit="10"/>
<g id="Group_7">
<path id="Vector_44" d="M500 11H440V39H500V11Z" stroke="#0072BC" stroke-width="2" stroke-miterlimit="10"/>
<path id="Vector_45" d="M500 3.8999H440V10.9999H500V3.8999Z" fill="#D5F1FA" stroke="#0072BC" stroke-width="2" stroke-miterlimit="10"/>
<path id="Vector_46" d="M480.5 19.5H446.5V32.5H480.5V19.5Z" fill="#D5F1FA" stroke="#0072BC" stroke-miterlimit="10"/>
<path id="Vector_47" d="M494.5 16.5H470.5V26.5H494.5V16.5Z" fill="#D5F1FA" stroke="#0072BC" stroke-miterlimit="10"/>
</g>
<path id="Vector_48" d="M470.5 68V40" stroke="#0072BC" stroke-miterlimit="10"/>
<g id="Group_8">
<g id="Group_9">
<path id="Vector_49" d="M624 148C633.389 148 641 145.538 641 142.5C641 139.462 633.389 137 624 137C614.611 137 607 139.462 607 142.5C607 145.538 614.611 148 624 148Z" fill="#D5F1FA"/>
<g id="Group_10">
<path id="Vector_50" d="M624 156.3C633.389 156.3 641 153.837 641 150.8C641 147.762 633.389 145.3 624 145.3C614.611 145.3 607 147.762 607 150.8C607 153.837 614.611 156.3 624 156.3Z" fill="#D5F1FA"/>
<path id="Vector_51" d="M641 142.5H607V150.8H641V142.5Z" fill="#D5F1FA"/>
</g>
</g>
<path id="Vector_52" d="M641 159.2C641 162.3 633.4 164.7 624 164.7C614.6 164.7 607 162.2 607 159.2" stroke="#0072BC" stroke-width="2" stroke-miterlimit="10"/>
<path id="Vector_53" d="M641 150.8C641 153.9 633.4 156.3 624 156.3C614.6 156.3 607 153.8 607 150.8" stroke="#0072BC" stroke-width="2" stroke-miterlimit="10"/>
<path id="Vector_54" d="M624 148C633.389 148 641 145.538 641 142.5C641 139.462 633.389 137 624 137C614.611 137 607 139.462 607 142.5C607 145.538 614.611 148 624 148Z" stroke="#0072BC" stroke-width="2" stroke-miterlimit="10"/>
<path id="Vector_55" d="M607 142.5V167.4C607 170.5 614.6 172.9 624 172.9C633.4 172.9 641 170.4 641 167.4V142.5" stroke="#0072BC" stroke-width="2" stroke-miterlimit="10"/>
</g>
<path id="Vector_56" d="M669.5 207.5H624.5V173.5" stroke="#0072BC" stroke-miterlimit="10"/>
<path id="Vector_57" d="M451 121.5H624.5V138" stroke="#0072BC" stroke-miterlimit="10"/>
<path id="Vector_58" d="M136.5 56.5V182.5" stroke="#0072BC" stroke-miterlimit="10"/>
<g id="Group 2_2">
<path id="Vector_59" d="M439.9 219.3L399.5 198.8L402.6 191.8L444.5 208.8C451.9 212 447.2 222.5 439.9 219.3Z" stroke="#0072BC" stroke-width="2" stroke-miterlimit="10"/>
<path id="Vector_60" d="M400.3 196L374.7 184.6L372.1 185.6L364.7 180.1L365.9 177.4L374.9 179.2L376 181.9L401.5 193.3" stroke="#0072BC" stroke-width="2" stroke-miterlimit="10"/>
</g>
<g id="Group_11">
<path id="Vector_61" d="M454.5 166.5C456.8 164.2 456.8 160.4 454.5 158C452.2 155.6 448.4 155.7 446 158L454.5 166.5Z" stroke="#0072BC" stroke-miterlimit="10"/>
<path id="Vector_62" d="M451.71 163.642L448.882 160.814L441.104 168.592L443.932 171.42L451.71 163.642Z" stroke="#0072BC" stroke-miterlimit="10"/>
</g>
<g id="Group_12">
<path id="Vector_63" d="M299 19.9999C296.7 17.6999 292.9 17.6999 290.5 19.9999C288.1 22.2999 288.2 26.0999 290.5 28.4999L299 19.9999Z" stroke="#0072BC" stroke-miterlimit="10"/>
<path id="Vector_64" d="M296.114 22.82L293.286 25.6484L301.064 33.4265L303.892 30.5981L296.114 22.82Z" stroke="#0072BC" stroke-miterlimit="10"/>
</g>
<g id="Group_13">
<path id="Vector_65" d="M664.5 65.5C662.2 67.8 662.2 71.6 664.5 74C666.8 76.3 670.6 76.3 673 74L664.5 65.5Z" stroke="#0072BC" stroke-miterlimit="10"/>
<path id="Vector_66" d="M667.352 68.3586L670.181 71.187L677.959 63.4089L675.13 60.5805L667.352 68.3586Z" stroke="#0072BC" stroke-miterlimit="10"/>
</g>
<g id="Group_14">
<path id="Vector_67" d="M333.5 218.5V226.5L340.5 230.6L347.5 226.5V218.5L340.5 214.4L333.5 218.5Z" stroke="#0072BC" stroke-miterlimit="10"/>
<path id="Vector_68" d="M340.5 226.5C342.709 226.5 344.5 224.709 344.5 222.5C344.5 220.291 342.709 218.5 340.5 218.5C338.291 218.5 336.5 220.291 336.5 222.5C336.5 224.709 338.291 226.5 340.5 226.5Z" stroke="#0072BC" stroke-miterlimit="10"/>
</g>
<g id="Group_15">
<path id="Vector_69" d="M15.5 5.4999V13.4999L22.5 17.5999L29.5 13.4999V5.4999L22.5 1.3999L15.5 5.4999Z" stroke="#0072BC" stroke-miterlimit="10"/>
<path id="Vector_70" d="M22.5 13.5C24.7091 13.5 26.5 11.7091 26.5 9.5C26.5 7.29086 24.7091 5.5 22.5 5.5C20.2909 5.5 18.5 7.29086 18.5 9.5C18.5 11.7091 20.2909 13.5 22.5 13.5Z" stroke="#0072BC" stroke-miterlimit="10"/>
</g>
<g id="Group_16">
<path id="Vector_71" d="M292.5 95.5H284.5L280.4 102.5L284.5 109.5H292.5L296.6 102.5L292.5 95.5Z" stroke="#0072BC" stroke-miterlimit="10"/>
<path id="Vector_72" d="M288.5 106.5C290.709 106.5 292.5 104.709 292.5 102.5C292.5 100.291 290.709 98.5 288.5 98.5C286.291 98.5 284.5 100.291 284.5 102.5C284.5 104.709 286.291 106.5 288.5 106.5Z" stroke="#0072BC" stroke-miterlimit="10"/>
</g>
<g id="Group_17">
<path id="Vector_73" d="M805.5 188.5H797.5L793.4 195.5L797.5 202.5H805.5L809.6 195.5L805.5 188.5Z" stroke="#0072BC" stroke-miterlimit="10"/>
<path id="Vector_74" d="M801.5 199.5C803.709 199.5 805.5 197.709 805.5 195.5C805.5 193.291 803.709 191.5 801.5 191.5C799.291 191.5 797.5 193.291 797.5 195.5C797.5 197.709 799.291 199.5 801.5 199.5Z" stroke="#0072BC" stroke-miterlimit="10"/>
</g>
<g id="Group_18">
<path id="Vector_75" d="M724 200H718V215H724V200Z" fill="#D5F1FA"/>
<path id="Vector_76" d="M689.482 215H718.082V209.5H689.482V215Z" fill="#D5F1FA" stroke="#0072BC" stroke-miterlimit="10"/>
<path id="Vector_77" d="M718.1 200H689.5V205.5H718.1V200Z" fill="#D5F1FA" stroke="#0072BC" stroke-miterlimit="10"/>
<path id="Vector_78" d="M669.513 209.5H689.812V205.5H669.513V209.5Z" fill="#D5F1FA"/>
<g id="Group_19">
<path id="Vector_79" d="M724 200H670V215H724V200Z" stroke="#0072BC" stroke-width="2" stroke-miterlimit="10"/>
<path id="Vector_80" d="M718 200V205V215" stroke="#0072BC" stroke-width="2" stroke-miterlimit="10"/>
<path id="Vector_81" d="M689.5 200V205V215" stroke="#0072BC" stroke-width="0.9837" stroke-miterlimit="10"/>
<path id="Vector_82" d="M669 205.5H718" stroke="#0072BC" stroke-width="0.9837" stroke-miterlimit="10"/>
<path id="Vector_83" d="M669 209.5H718" stroke="#0072BC" stroke-width="0.9837" stroke-miterlimit="10"/>
</g>
</g>
<g id="Group_20">
<path id="Vector_84" d="M494.5 116.5H598.5" stroke="#0072BC" stroke-miterlimit="10"/>
</g>
<path id="Vector_85" d="M39.5 25.5L45.5 13.5" stroke="#0072BC" stroke-miterlimit="10"/>
<path id="Vector_86" d="M230.5 56.5L236.5 44.5" stroke="#0072BC" stroke-miterlimit="10"/>
<path id="Vector_87" d="M492.6 208.9L488.4 196.1" stroke="#0072BC" stroke-miterlimit="10"/>
<path id="Vector_88" d="M713.1 147.6L725.9 143.4" stroke="#0072BC" stroke-miterlimit="10"/>
<path id="Vector_89" d="M592.5 73.5L604.5 79.5" stroke="#0072BC" stroke-miterlimit="10"/>
<path id="Vector_90" d="M111.5 48V0.5H379.5V37" stroke="#0072BC" stroke-miterlimit="10"/>
</g>
</svg>
