<svg width="703" height="242" viewBox="0 0 703 242" fill="none" xmlns="http://www.w3.org/2000/svg">
<g id="Project Recovery and Anti-Crisis Management copy">
<path id="Vector" d="M104.059 107L170.059 63L283.45 173.074L371.45 113.074" stroke="#0072BC" stroke-miterlimit="10"/>
<path id="Vector_2" d="M306.059 183H20.5591V223.5H306.059V183Z" fill="#D5F1FA" stroke="#0072BC" stroke-miterlimit="10"/>
<path id="Vector_3" d="M580.059 137H20.5591V223.5H580.059V137Z" stroke="#0072BC" stroke-miterlimit="10"/>
<path id="Vector_4" d="M371.559 48H484.059V224" stroke="#0072BC" stroke-miterlimit="10"/>
<path id="Vector_5" d="M21.458 48H303.559" stroke="#0072BC" stroke-miterlimit="10"/>
<path id="Vector_6" d="M176.595 106.413L173.349 103.167L176.595 99.9218L173.244 96.5708L169.999 99.8168L166.753 96.5708L163.403 99.9218L166.649 103.167L163.403 106.413L166.753 109.763L169.999 106.518L173.244 109.763L176.595 106.413Z" fill="#D5F1FA" stroke="#0072BC" stroke-miterlimit="10"/>
<path id="Vector_7" d="M96.5948 25.4128L93.3488 22.1668L96.5948 18.9218L93.2438 15.5708L89.9988 18.8168L86.7528 15.5708L83.4028 18.9218L86.6488 22.1668L83.4028 25.4128L86.7528 28.7628L89.9988 25.5178L93.2438 28.7628L96.5948 25.4128Z" fill="#D5F1FA" stroke="#0072BC" stroke-miterlimit="10"/>
<path id="Vector_8" d="M476.595 209.413L473.349 206.167L476.595 202.922L473.244 199.571L469.999 202.817L466.753 199.571L463.403 202.922L466.649 206.167L463.403 209.413L466.753 212.763L469.999 209.518L473.244 212.763L476.595 209.413Z" fill="#D5F1FA" stroke="#0072BC" stroke-miterlimit="10"/>
<path id="Vector_9" d="M623.595 183.413L620.349 180.167L623.595 176.922L620.244 173.571L616.999 176.817L613.753 173.571L610.403 176.922L613.649 180.167L610.403 183.413L613.753 186.763L616.999 183.518L620.244 186.763L623.595 183.413Z" fill="#D5F1FA" stroke="#0072BC" stroke-miterlimit="10"/>
<path id="Vector_10" d="M701.648 216.411L699.52 214.283L701.648 212.156L699.452 209.959L697.324 212.087L695.197 209.959L693 212.156L695.128 214.283L693 216.411L695.197 218.607L697.324 216.48L699.452 218.607L701.648 216.411Z" fill="#D5F1FA" stroke="#0072BC" stroke-miterlimit="10"/>
<path id="Vector_11" d="M179.742 35.2092L177.518 33.1822L179.545 30.9582L177.25 28.8662L175.223 31.0892L172.999 29.0622L170.907 31.3572L173.13 33.3852L171.103 35.6082L173.398 37.7012L175.426 35.4772L177.649 37.5042L179.742 35.2092Z" fill="#D5F1FA" stroke="#0072BC" stroke-miterlimit="10"/>
<path id="Vector_12" d="M566.742 104.209L564.518 102.182L566.545 99.9582L564.25 97.8662L562.223 100.089L559.999 98.0622L557.907 100.357L560.13 102.385L558.103 104.608L560.398 106.701L562.426 104.477L564.649 106.504L566.742 104.209Z" fill="#D5F1FA" stroke="#0072BC" stroke-miterlimit="10"/>
<path id="Vector_13" d="M509.742 161.209L507.518 159.182L509.545 156.958L507.25 154.866L505.223 157.089L502.999 155.062L500.907 157.357L503.13 159.385L501.103 161.608L503.398 163.701L505.426 161.477L507.649 163.504L509.742 161.209Z" fill="#D5F1FA" stroke="#0072BC" stroke-miterlimit="10"/>
<path id="Vector_14" d="M9.648 197.411L7.52 195.283L9.648 193.156L7.452 190.959L5.324 193.087L3.197 190.959L1 193.156L3.128 195.283L1 197.411L3.197 199.607L5.324 197.48L7.452 199.607L9.648 197.411Z" fill="#D5F1FA" stroke="#0072BC" stroke-miterlimit="10"/>
<path id="Vector_15" d="M20.5591 2.5V241.5" stroke="#0072BC" stroke-width="2" stroke-miterlimit="10"/>
<path id="Vector_16" d="M8.55908 223.5H606.559" stroke="#0072BC" stroke-width="2" stroke-miterlimit="10"/>
<path id="Vector_17" d="M318.464 85.5H304.559V95.5H318.464V85.5Z" fill="#D5F1FA"/>
<path id="Vector_18" d="M380.533 85.5H335.533V95.5H380.533V85.5Z" fill="#D5F1FA"/>
<path id="Vector_19" d="M322.533 81.5C322.533 81.5 354.419 74.231 352.377 44.833C350.199 13.5 328.199 13.5 328.199 13.5H356.259C359.678 13.5 360.706 14.075 361.259 17.816L370.622 81.5H322.533Z" fill="#D5F1FA"/>
<path id="Vector_20" d="M380.533 81.5H295.559V95.5H380.533V81.5Z" stroke="#0072BC" stroke-width="2" stroke-miterlimit="10"/>
<path id="Vector_21" d="M370.622 81.5L361.259 17.816C361.082 16.6163 360.48 15.5201 359.562 14.7277C358.644 13.9353 357.472 13.4995 356.259 13.5H318.896C317.683 13.4995 316.511 13.9353 315.593 14.7277C314.675 15.5201 314.073 16.6163 313.896 17.816L304.559 81.5" stroke="#0072BC" stroke-width="2" stroke-miterlimit="10"/>
<path id="Vector_22" d="M338.997 64.5359C336.686 64.5337 334.4 64.0469 332.289 63.107C330.177 62.1671 328.286 60.795 326.737 59.079C325.188 57.3631 324.017 55.3415 323.297 53.1448C322.578 50.9481 322.327 48.625 322.562 46.3254C322.796 44.0258 323.509 41.8009 324.656 39.7941C325.803 37.7873 327.358 36.0433 329.221 34.6746C331.084 33.3059 333.212 32.3429 335.47 31.8477C337.728 31.3526 340.065 31.3363 342.329 31.7999" stroke="#0072BC" stroke-miterlimit="10"/>
<path id="Vector_23" d="M347.765 39.2319L318.464 68.5329" stroke="#0072BC" stroke-miterlimit="10"/>
<path id="Vector_24" d="M343.997 53.0001L318.931 27.9351" stroke="#0072BC" stroke-miterlimit="10"/>
<path id="Vector_25" d="M315.866 48H328.964" stroke="#0072BC" stroke-miterlimit="10"/>
<path id="Vector_26" d="M339.309 86H373.142L373.059 95.5" stroke="#0072BC" stroke-miterlimit="10"/>
<path id="Vector_27" d="M356.059 19L360.059 78" stroke="#0072BC" stroke-miterlimit="10"/>
<path id="Vector_28" d="M303.059 48H281.559" stroke="#0072BC" stroke-miterlimit="10"/>
<path id="Vector_29" d="M307.059 16L292.059 1" stroke="#0072BC" stroke-miterlimit="10"/>
<path id="Vector_30" d="M304.059 34L255.059 16" stroke="#0072BC" stroke-miterlimit="10"/>
<path id="Vector_31" d="M300.059 63L264.059 76" stroke="#0072BC" stroke-miterlimit="10"/>
<path id="Vector_32" d="M40.5591 24.5L172.059 150L254.059 103L331.059 171L457.059 86" stroke="#0072BC" stroke-width="2" stroke-miterlimit="10"/>
<path id="Vector_33" d="M438.559 85.5H457.559V103.5" stroke="#0072BC" stroke-width="2" stroke-miterlimit="10"/>
<path id="Vector_34" d="M171.559 153.5C173.768 153.5 175.559 151.709 175.559 149.5C175.559 147.291 173.768 145.5 171.559 145.5C169.35 145.5 167.559 147.291 167.559 149.5C167.559 151.709 169.35 153.5 171.559 153.5Z" fill="#D5F1FA" stroke="#0072BC" stroke-width="2" stroke-miterlimit="10"/>
<path id="Vector_35" d="M331.559 175.5C333.768 175.5 335.559 173.709 335.559 171.5C335.559 169.291 333.768 167.5 331.559 167.5C329.35 167.5 327.559 169.291 327.559 171.5C327.559 173.709 329.35 175.5 331.559 175.5Z" fill="#D5F1FA" stroke="#0072BC" stroke-width="2" stroke-miterlimit="10"/>
<path id="Vector_36" d="M253.559 106.5C255.768 106.5 257.559 104.709 257.559 102.5C257.559 100.291 255.768 98.5 253.559 98.5C251.35 98.5 249.559 100.291 249.559 102.5C249.559 104.709 251.35 106.5 253.559 106.5Z" fill="#D5F1FA" stroke="#0072BC" stroke-width="2" stroke-miterlimit="10"/>
<path id="Vector_37" d="M58.5591 56.5H39.5591V223.5H58.5591V56.5Z" fill="#D5F1FA" stroke="#0072BC" stroke-width="2" stroke-miterlimit="10"/>
<path id="Vector_38" d="M90.5591 94.5H71.5591V223.5H90.5591V94.5Z" fill="#D5F1FA" stroke="#0072BC" stroke-width="2" stroke-miterlimit="10"/>
<path id="Vector_39" d="M122.559 115.5H103.559V223.5H122.559V115.5Z" fill="#D5F1FA" stroke="#0072BC" stroke-width="2" stroke-miterlimit="10"/>
<path id="Vector_40" d="M154.559 145.5H135.559V223.5H154.559V145.5Z" fill="#D5F1FA" stroke="#0072BC" stroke-width="2" stroke-miterlimit="10"/>
<path id="Vector_41" d="M187.559 163.5H168.559V223.5H187.559V163.5Z" fill="#D5F1FA" stroke="#0072BC" stroke-width="2" stroke-miterlimit="10"/>
<path id="Vector_42" d="M219.559 145.5H200.559V223.5H219.559V145.5Z" fill="#D5F1FA" stroke="#0072BC" stroke-width="2" stroke-miterlimit="10"/>
<path id="Vector_43" d="M251.559 125.5H232.559V223.5H251.559V125.5Z" fill="#D5F1FA" stroke="#0072BC" stroke-width="2" stroke-miterlimit="10"/>
<path id="Vector_44" d="M283.559 154.5H264.559V223.5H283.559V154.5Z" fill="#D5F1FA" stroke="#0072BC" stroke-width="2" stroke-miterlimit="10"/>
<path id="Vector_45" d="M315.559 175.5H296.559V223.5H315.559V175.5Z" fill="#D5F1FA" stroke="#0072BC" stroke-width="2" stroke-miterlimit="10"/>
<path id="Vector_46" d="M347.559 183.5H328.559V223.5H347.559V183.5Z" fill="#D5F1FA" stroke="#0072BC" stroke-width="2" stroke-miterlimit="10"/>
<path id="Vector_47" d="M380.559 167.5H361.559V223.5H380.559V167.5Z" fill="#D5F1FA" stroke="#0072BC" stroke-width="2" stroke-miterlimit="10"/>
<path id="Vector_48" d="M412.559 148.5H393.559V223.5H412.559V148.5Z" fill="#D5F1FA" stroke="#0072BC" stroke-width="2" stroke-miterlimit="10"/>
<path id="Vector_49" d="M443.559 125.5H424.559V223.5H443.559V125.5Z" fill="#D5F1FA" stroke="#0072BC" stroke-width="2" stroke-miterlimit="10"/>
<path id="Vector_50" d="M352.059 162L432.059 108" stroke="#0072BC" stroke-miterlimit="10"/>
<path id="Vector_51" d="M372.059 126.5V112H356.559" stroke="#0072BC" stroke-miterlimit="10"/>
</g>
</svg>
