<svg width="122" height="122" viewBox="0 0 122 122" fill="none" xmlns="http://www.w3.org/2000/svg">
<path d="M96 61.0001C96 54.9439 94.4285 48.9914 91.4392 43.7244C88.4499 38.4574 84.1451 34.0562 78.9456 30.951C73.7461 27.8459 67.8298 26.143 61.7752 26.0088C55.7205 25.8747 49.7346 27.3139 44.4027 30.1858C39.0708 33.0577 34.5753 37.2639 31.3557 42.3934C28.1361 47.5228 26.3026 53.3999 26.0343 59.4501C25.7661 65.5003 27.0724 71.5166 29.8254 76.9108C32.5785 82.3051 36.6841 86.8926 41.741 90.2251C42.1323 90.4896 42.452 90.8468 42.6716 91.2648C42.8913 91.6829 43.0041 92.1488 43 92.6211V102.569C43 112.329 50.59 120.642 60.344 120.988C62.7614 121.076 65.1718 120.676 67.4311 119.812C69.6905 118.948 71.7524 117.637 73.4938 115.958C75.2352 114.279 76.6203 112.266 77.5664 110.04C78.5124 107.813 79 105.419 79 103V92.6221C78.9955 92.1501 79.1079 91.6844 79.3272 91.2665C79.5466 90.8486 79.866 90.4915 80.257 90.2271C85.0974 87.0414 89.0702 82.7027 91.8182 77.601C94.5662 72.4994 96.0032 66.7948 96 61.0001Z" fill="#D5F1FA" stroke="#0072BC" stroke-width="2" stroke-miterlimit="10"/>
<path d="M61 85C74.2548 85 85 74.2548 85 61C85 47.7452 74.2548 37 61 37C47.7452 37 37 47.7452 37 61C37 74.2548 47.7452 85 61 85Z" fill="#D5F1FA" stroke="#0072BC" stroke-width="2" stroke-miterlimit="10"/>
<path d="M70.9191 88.251C64.512 90.5831 57.4881 90.5831 51.0811 88.251" stroke="#0072BC" stroke-width="2" stroke-miterlimit="10" stroke-linecap="round"/>
<path d="M61 103V90" stroke="#0072BC" stroke-width="2" stroke-miterlimit="10"/>
<path d="M45 110.968L77 111" stroke="#0072BC" stroke-width="2" stroke-miterlimit="10"/>
<path d="M43 103H79" stroke="#0072BC" stroke-width="2" stroke-miterlimit="10"/>
<path d="M52 65C52 69 55 72 61 72C66.219 72 69 69.938 69 67C69 63.5 66.875 61.938 61 60.5C56.2 59.325 53 57.312 53 54.6C53 51.85 55 49 61 49C65.944 49 69 51.786 69 55" stroke="#0072BC" stroke-width="2" stroke-miterlimit="10"/>
<path d="M61 44V49.274" stroke="#0072BC" stroke-width="2" stroke-miterlimit="10"/>
<path d="M61 72.7739V77.9999" stroke="#0072BC" stroke-width="2" stroke-miterlimit="10"/>
<path d="M105.012 105.012L91.406 91.406" stroke="#0072BC" stroke-width="2" stroke-miterlimit="10"/>
<path d="M16.988 16.988L30.594 30.594" stroke="#0072BC" stroke-width="2" stroke-miterlimit="10"/>
<path d="M61 0V18" stroke="#0072BC" stroke-width="2" stroke-miterlimit="10"/>
<path d="M16.988 104.012L30.594 91.406" stroke="#0072BC" stroke-width="2" stroke-miterlimit="10"/>
<path d="M105.012 16.988L91.406 30.594" stroke="#0072BC" stroke-width="2" stroke-miterlimit="10"/>
<path d="M0 61H18" stroke="#0072BC" stroke-width="2" stroke-miterlimit="10"/>
<path d="M122 61H104" stroke="#0072BC" stroke-width="2" stroke-miterlimit="10"/>
<path d="M113 82.539L101 78" stroke="#0072BC" stroke-width="2" stroke-miterlimit="10"/>
<path d="M9 39.4609L20 43.9999" stroke="#0072BC" stroke-width="2" stroke-miterlimit="10"/>
<path d="M82.539 9L78 21" stroke="#0072BC" stroke-width="2" stroke-miterlimit="10"/>
<path d="M10.0381 82.109L20.0001 78" stroke="#0072BC" stroke-width="2" stroke-miterlimit="10"/>
<path d="M111.962 39.8911L101 45.0001" stroke="#0072BC" stroke-width="2" stroke-miterlimit="10"/>
<path d="M39.4609 9L44.9999 22" stroke="#0072BC" stroke-width="2" stroke-miterlimit="10"/>
</svg>
