<svg width="720" height="255" viewBox="0 0 720 255" fill="none" xmlns="http://www.w3.org/2000/svg">
<g id="Idea-to-Benefit Service copy">
<path id="Vector" d="M100.176 209.078H113.91L121.588 254.019H92.2891L100.176 209.078Z" fill="#D5F1FA" stroke="#0072BC" stroke-miterlimit="10"/>
<path id="Vector_2" d="M185.787 203.62L181.097 198.929L138.45 182.194L131.145 168.846C131.145 168.846 147.821 157.599 150.753 147.338C142.001 145.298 138.07 143.429 135.009 137.777C134.801 137.402 134.694 136.979 134.699 136.549C134.704 136.12 134.821 135.699 135.038 135.329C135.254 134.958 135.564 134.651 135.936 134.436C136.307 134.222 136.729 134.108 137.158 134.105H153.021C153.744 130.418 154.124 126.673 154.158 122.916C158.403 120.495 164.823 121.308 164.823 116.071C164.823 113.816 152.149 100.961 152.149 100.961C149.189 84.8031 148.889 83.2821 148.17 77.0261C147.626 72.2961 161.696 58.2261 146.631 56.2931C136.846 55.0361 121.514 53.5361 110.98 53.5361C109.463 53.5361 90.619 55.1751 82.314 58.3891C70.001 65.0201 61.95 72.1131 61.95 85.3891C61.95 125.13 82.24 131.847 79.708 168.173L72.927 182.188L29.273 199.618L26.325 203.625L6 253.647H202.98L185.787 203.62Z" stroke="#0072BC" stroke-width="2" stroke-miterlimit="10"/>
<path id="Vector_3" d="M441.663 228.324C438.863 221.82 433.64 216.663 427.101 213.945L407.073 206.536L406.188 188.836C406.188 188.836 421.866 184.946 427.83 181.964C427.83 169.043 423.73 134.496 415.902 130.28C407.602 125.311 396.819 124.31 389.08 124.31C382.38 124.31 371.22 125.496 365.212 127.299C355.273 130.28 352.637 141.188 352.291 144.199C351.991 146.772 360.622 147.521 360.622 147.521C360.622 147.521 359.84 151.837 359.175 155.465C359.175 155.465 351.118 163.638 351.118 165.072C351.118 168.401 355.199 167.884 357.898 169.424C357.919 171.812 358.161 174.193 358.621 176.537H368.706C368.979 176.539 369.247 176.611 369.483 176.747C369.72 176.884 369.917 177.08 370.054 177.315C370.192 177.551 370.266 177.818 370.27 178.091C370.273 178.364 370.205 178.633 370.072 178.872C368.126 182.465 365.627 183.653 360.063 184.95C360.243 197.871 372.984 197.711 372.984 197.711L373.619 207.044L351.879 213.484C348.376 214.829 345.188 216.884 342.516 219.519C339.845 222.154 337.746 225.313 336.352 228.797L330.832 252.536H447.132L441.663 228.324ZM397.307 162.417C397.238 162.461 397.18 162.522 397.141 162.595C397.101 162.667 397.08 162.748 397.08 162.83V166.436C397.079 166.974 397.023 167.51 396.915 168.036H381.08V162.83C381.08 162.748 381.059 162.667 381.019 162.595C380.98 162.522 380.922 162.461 380.853 162.417C378.713 161.041 376.953 159.15 375.735 156.917C374.516 154.684 373.879 152.18 373.88 149.636C373.88 138.122 386.68 129.598 398.829 137.523C399.784 138.148 400.597 138.966 401.218 139.923C407.024 148.868 403.931 158.144 397.307 162.417Z" fill="#D5F1FA"/>
<path id="Vector_4" d="M351.88 213.483L373.62 207.043L372.985 197.71C372.985 197.71 360.244 197.87 360.064 184.949C365.628 183.649 368.127 182.464 370.073 178.871C370.206 178.632 370.274 178.363 370.271 178.09C370.267 177.817 370.193 177.55 370.055 177.314C369.917 177.078 369.72 176.883 369.484 176.746C369.247 176.61 368.979 176.537 368.706 176.536H358.621C358.161 174.192 357.919 171.811 357.898 169.423C355.198 167.883 351.118 168.4 351.118 165.071C351.118 163.637 359.175 155.464 359.175 155.464C359.84 151.836 360.622 147.52 360.622 147.52C360.622 147.52 351.995 146.771 352.291 144.198C352.637 141.191 355.273 130.283 365.212 127.298C371.22 125.498 382.382 124.309 389.08 124.309C396.819 124.309 407.599 125.309 415.902 130.279C423.731 134.495 427.83 169.042 427.83 181.963C421.866 184.945 406.188 188.835 406.188 188.835L407.073 206.535L427.101 213.944C433.639 216.662 438.862 221.82 441.663 228.323L447.133 252.536H330.833L336.353 228.796C337.747 225.312 339.846 222.153 342.518 219.518C345.19 216.883 348.377 214.829 351.88 213.483V213.483Z" stroke="#0072BC" stroke-width="2" stroke-miterlimit="10"/>
<path id="Vector_5" d="M218.08 153.536V180.536" stroke="#0072BC" stroke-miterlimit="10"/>
<path id="Vector_6" d="M605.58 104.536C624.082 104.536 639.08 89.5377 639.08 71.0361C639.08 52.5346 624.082 37.5361 605.58 37.5361C587.079 37.5361 572.08 52.5346 572.08 71.0361C572.08 89.5377 587.079 104.536 605.58 104.536Z" stroke="#0072BC" stroke-width="2" stroke-miterlimit="10"/>
<path id="Vector_7" d="M605.08 20.5361V32.5361" stroke="#0072BC" stroke-width="2" stroke-miterlimit="10"/>
<path id="Vector_8" d="M605.08 109.536V121.536" stroke="#0072BC" stroke-width="2" stroke-miterlimit="10"/>
<path id="Vector_9" d="M587.768 28.958L590.432 35.432" stroke="#0072BC" stroke-width="2" stroke-miterlimit="10"/>
<path id="Vector_10" d="M619.728 106.64L622.392 113.114" stroke="#0072BC" stroke-width="2" stroke-miterlimit="10"/>
<path id="Vector_11" d="M587.568 113.031L590.262 106.57" stroke="#0072BC" stroke-width="2" stroke-miterlimit="10"/>
<path id="Vector_12" d="M619.898 35.502L622.592 29.041" stroke="#0072BC" stroke-width="2" stroke-miterlimit="10"/>
<path id="Vector_13" d="M563.002 88.3481L569.476 85.6841" stroke="#0072BC" stroke-width="2" stroke-miterlimit="10"/>
<path id="Vector_14" d="M640.684 56.3881L647.158 53.7241" stroke="#0072BC" stroke-width="2" stroke-miterlimit="10"/>
<path id="Vector_15" d="M563.085 53.5239L569.546 56.2179" stroke="#0072BC" stroke-width="2" stroke-miterlimit="10"/>
<path id="Vector_16" d="M640.614 85.854L647.075 88.548" stroke="#0072BC" stroke-width="2" stroke-miterlimit="10"/>
<path id="Vector_17" d="M643.58 71.0361H655.58" stroke="#0072BC" stroke-width="2" stroke-miterlimit="10"/>
<path id="Vector_18" d="M568.785 107.331L577.856 98.2598" stroke="#0072BC" stroke-width="2" stroke-miterlimit="10"/>
<path id="Vector_19" d="M632.304 43.8122L641.375 34.7412" stroke="#0072BC" stroke-width="2" stroke-miterlimit="10"/>
<path id="Vector_20" d="M568.785 34.7412L577.856 43.8122" stroke="#0072BC" stroke-width="2" stroke-miterlimit="10"/>
<path id="Vector_21" d="M632.304 98.2598L641.375 107.331" stroke="#0072BC" stroke-width="2" stroke-miterlimit="10"/>
<path id="Vector_22" d="M593.141 64.6199L586.921 70.8389L602.868 86.7859L623.599 66.0549L617.38 59.8359L602.868 74.3479L593.141 64.6199Z" fill="#D5F1FA" stroke="#0072BC" stroke-miterlimit="10"/>
<path id="Vector_23" d="M224.33 5.03613C220.127 5.03613 216.019 6.28242 212.524 8.6174C209.03 10.9524 206.306 14.2712 204.698 18.1541C203.089 22.037 202.668 26.3097 203.488 30.4318C204.308 34.5539 206.332 38.3403 209.304 41.3122C212.276 44.284 216.062 46.3079 220.184 47.1278C224.307 47.9478 228.579 47.5269 232.462 45.9186C236.345 44.3102 239.664 41.5865 241.999 38.092C244.334 34.5975 245.58 30.489 245.58 26.2861C245.58 20.6503 243.341 15.2453 239.356 11.2601C235.371 7.27496 229.966 5.03613 224.33 5.03613ZM224.33 42.8881C221.047 42.8881 217.837 41.9146 215.108 40.0905C212.378 38.2665 210.25 35.6739 208.994 32.6407C207.737 29.6074 207.409 26.2697 208.049 23.0496C208.69 19.8295 210.271 16.8717 212.592 14.5502C214.914 12.2286 217.872 10.6476 221.092 10.0071C224.312 9.36658 227.649 9.69532 230.683 10.9517C233.716 12.2081 236.308 14.3358 238.132 17.0657C239.957 19.7955 240.93 23.005 240.93 26.2881C240.93 30.6907 239.181 34.913 236.068 38.0261C232.955 41.1392 228.733 42.8881 224.33 42.8881Z" fill="#D5F1FA" stroke="#0072BC" stroke-miterlimit="10"/>
<path id="Vector_24" d="M415.08 9.03613H387.08V41.0361H415.08V9.03613Z" fill="#D5F1FA" stroke="#0072BC" stroke-miterlimit="10"/>
<path id="Vector_25" d="M387.08 9.03613H373.08V41.0361H387.08V9.03613Z" stroke="#0072BC" stroke-miterlimit="10"/>
<path id="Vector_26" d="M429.08 9.03613H415.08V41.0361H429.08V9.03613Z" fill="#D5F1FA" stroke="#0072BC" stroke-miterlimit="10"/>
<path id="Vector_27" d="M395.315 28.3179C395.315 30.6739 398.289 33.4049 401.956 33.4049C405.623 33.4049 408.597 31.4949 408.597 29.1389C408.597 26.7829 405.277 25.1999 401.956 24.8719C398.307 24.5109 395.315 22.9619 395.315 20.6049C395.315 18.2479 398.289 16.3389 401.956 16.3389C405.623 16.3389 408.597 19.0689 408.597 21.4259" stroke="#0072BC" stroke-miterlimit="10"/>
<path id="Vector_28" d="M401.126 12.3179V15.5999" stroke="#0072BC" stroke-miterlimit="10"/>
<path id="Vector_29" d="M402.001 32.7622V36.0452" stroke="#0072BC" stroke-miterlimit="10"/>
<path id="Vector_30" d="M357.33 180.036H222.08V140.036H151.08" stroke="#0072BC" stroke-miterlimit="10"/>
<path id="Vector_31" d="M224.08 15.083V30.536" stroke="#0072BC" stroke-miterlimit="10"/>
<path id="Vector_32" d="M403.58 71.5361H551.58H569.58" stroke="#0072BC" stroke-width="2" stroke-miterlimit="10"/>
<path id="Vector_33" d="M429.58 24.5361H463.58V72.0361" stroke="#0072BC" stroke-width="2" stroke-miterlimit="10"/>
<path id="Vector_34" d="M487.58 103.536H512.58V72.0361" stroke="#0072BC" stroke-width="2" stroke-miterlimit="10"/>
<path id="Vector_35" d="M321.509 158.322L317.973 153.786L321.509 149.25L325.044 153.786L321.509 158.322Z" fill="#D5F1FA" stroke="#0072BC" stroke-miterlimit="10"/>
<path id="Vector_36" d="M495.58 35.072L492.044 30.536L495.58 26L499.116 30.536L495.58 35.072Z" fill="#D5F1FA" stroke="#0072BC" stroke-miterlimit="10"/>
<path id="Vector_37" d="M577.856 206.536L574.321 202L577.856 197.465L581.392 202L577.856 206.536Z" fill="#D5F1FA" stroke="#0072BC" stroke-miterlimit="10"/>
<path id="Vector_38" d="M83.5799 10.072L80.0439 5.536L83.5799 1L87.116 5.536L83.5799 10.072Z" fill="#D5F1FA" stroke="#0072BC" stroke-miterlimit="10"/>
<path id="Vector_39" d="M468.58 195.607L461.509 186.536L468.58 177.465L475.651 186.536L468.58 195.607Z" fill="#D5F1FA" stroke="#0072BC" stroke-miterlimit="10"/>
<path id="Vector_40" d="M8.57979 165.607L1.50879 156.536L8.57979 147.465L15.6508 156.536L8.57979 165.607Z" fill="#D5F1FA" stroke="#0072BC" stroke-miterlimit="10"/>
<path id="Vector_41" d="M187.85 178.479L180.779 169.408L187.85 160.337L194.921 169.408L187.85 178.479Z" stroke="#0072BC" stroke-miterlimit="10"/>
<path id="Vector_42" d="M483.85 58.4789L476.779 49.4079L483.85 40.3369L490.921 49.4079L483.85 58.4789Z" stroke="#0072BC" stroke-miterlimit="10"/>
<path id="Vector_43" d="M227.85 82.4789L220.779 73.4079L227.85 64.3369L234.921 73.4079L227.85 82.4789Z" stroke="#0072BC" stroke-miterlimit="10"/>
<path id="Vector_44" d="M49.8498 59.4789L42.7788 50.4079L49.8498 41.3369L56.9208 50.4079L49.8498 59.4789Z" stroke="#0072BC" stroke-miterlimit="10"/>
<path id="Vector_45" d="M545.187 249.022L538.116 239.951L545.187 230.88L552.258 239.951L545.187 249.022Z" stroke="#0072BC" stroke-miterlimit="10"/>
<path id="Vector_46" d="M655.58 197.496L648.509 188.425L655.58 179.354L662.651 188.425L655.58 197.496Z" stroke="#0072BC" stroke-miterlimit="10"/>
<path id="Vector_47" d="M337.85 35.4789L330.779 26.4079L337.85 17.3369L344.921 26.4079L337.85 35.4789Z" stroke="#0072BC" stroke-miterlimit="10"/>
<path id="Vector_48" d="M303.58 215.607L296.509 206.536L303.58 197.465L310.651 206.536L303.58 215.607Z" fill="#D5F1FA" stroke="#0072BC" stroke-miterlimit="10"/>
<path id="Vector_49" d="M459.58 177.607L456.044 173.072L459.58 168.536L463.116 173.072L459.58 177.607Z" stroke="#0072BC" stroke-miterlimit="10"/>
<path id="Vector_50" d="M715.58 233.143L712.044 228.607L715.58 224.072L719.116 228.607L715.58 233.143Z" stroke="#0072BC" stroke-miterlimit="10"/>
<path id="Vector_51" d="M541.651 99.6071L538.116 95.0721L541.651 90.5361L545.187 95.0721L541.651 99.6071Z" stroke="#0072BC" stroke-miterlimit="10"/>
<path id="Vector_52" d="M280.651 228.607L277.116 224.072L280.651 219.536L284.187 224.072L280.651 228.607Z" stroke="#0072BC" stroke-miterlimit="10"/>
<path id="Vector_53" d="M240.651 169.607L237.116 165.072L240.651 160.536L244.187 165.072L240.651 169.607Z" stroke="#0072BC" stroke-miterlimit="10"/>
<path id="Vector_54" d="M18.6512 141.607L15.1162 137.072L18.6512 132.536L22.1872 137.072L18.6512 141.607Z" stroke="#0072BC" stroke-miterlimit="10"/>
<path id="Vector_55" d="M207.651 99.6071L204.116 95.0721L207.651 90.5361L211.187 95.0721L207.651 99.6071Z" stroke="#0072BC" stroke-miterlimit="10"/>
<path id="Vector_56" d="M411.848 209.195C409.374 212.603 406.133 215.381 402.387 217.306C398.642 219.23 394.496 220.247 390.285 220.275C386.073 220.302 381.915 219.338 378.145 217.462C374.374 215.586 371.098 212.85 368.58 209.474" stroke="#0072BC" stroke-miterlimit="10"/>
<path id="Vector_57" d="M381.08 162.83V168.545C381.072 169.121 381.186 169.693 381.413 170.222C381.64 170.752 381.977 171.228 382.4 171.619C389.2 177.703 397.08 172.99 397.08 166.437V162.83C397.08 162.748 397.101 162.667 397.141 162.595C397.18 162.522 397.237 162.461 397.307 162.417C403.931 158.144 407.024 148.868 401.218 139.927C400.597 138.969 399.784 138.152 398.829 137.527C386.683 129.602 373.88 138.127 373.88 149.64C373.879 152.184 374.517 154.687 375.735 156.92C376.953 159.153 378.713 161.044 380.853 162.42C380.922 162.464 380.979 162.525 381.018 162.596C381.058 162.668 381.079 162.748 381.08 162.83Z" stroke="#0072BC" stroke-miterlimit="10"/>
<path id="Vector_58" d="M381.58 168.036H396.58" stroke="#0072BC" stroke-miterlimit="10"/>
<path id="Vector_59" d="M381.58 171.036H395.58" stroke="#0072BC" stroke-miterlimit="10"/>
<path id="Vector_60" d="M383.98 152.725C386.894 153.901 390.151 153.901 393.066 152.725" stroke="#0072BC" stroke-miterlimit="10"/>
<path id="Vector_61" d="M389.08 153.536V167.536" stroke="#0072BC" stroke-miterlimit="10"/>
<path id="Vector_62" d="M394.32 145.701L390.994 149.028" stroke="#0072BC" stroke-miterlimit="10"/>
<path id="Vector_63" d="M383.63 145.701L386.957 149.028" stroke="#0072BC" stroke-miterlimit="10"/>
<path id="Vector_64" d="M389.08 143.536V148.536" stroke="#0072BC" stroke-miterlimit="10"/>
<path id="Vector_65" d="M95.9639 197.717L106.222 189.888L118.87 197.861L113.72 209.078H100.157L95.9639 197.717Z" fill="#D5F1FA" stroke="#0072BC" stroke-miterlimit="10"/>
<path id="Vector_66" d="M80.276 168.719L106.222 185.899L130.184 168.719L137.631 182.327L127.02 202.628L106.222 189.516L89.042 202.628L73.123 183.697L80.276 168.719Z" stroke="#0072BC" stroke-miterlimit="10"/>
<path id="Vector_67" d="M389.08 174.536V180.036H375.58" stroke="#0072BC" stroke-miterlimit="10"/>
<path id="Vector_68" d="M130.744 142.289H109.103V131.842" stroke="#0072BC" stroke-miterlimit="10"/>
<path id="Vector_69" d="M132.212 106.483L134.265 105.836C134.469 105.771 134.646 105.639 134.767 105.462C134.888 105.285 134.946 105.073 134.933 104.859C134.872 103.734 134.738 102.613 134.533 101.505C134.496 101.299 134.393 101.111 134.239 100.969C134.085 100.827 133.889 100.739 133.681 100.718L131.441 100.502C131.252 100.485 131.072 100.412 130.924 100.292C130.777 100.171 130.668 100.01 130.613 99.8281C130.435 99.2281 130.235 98.6394 130.013 98.0621C129.945 97.881 129.933 97.6834 129.98 97.4956C130.027 97.3078 130.13 97.1388 130.275 97.011L131.903 95.5711C132.063 95.4283 132.171 95.2364 132.209 95.0256C132.248 94.8148 132.215 94.5971 132.116 94.4071C131.592 93.3843 131 92.3971 130.346 91.4521C130.228 91.2786 130.057 91.1484 129.859 91.081C129.66 91.0137 129.445 91.013 129.246 91.0791L127.103 91.7961C126.924 91.8566 126.732 91.8627 126.55 91.8136C126.368 91.7644 126.205 91.6623 126.081 91.5201C125.704 91.0801 125.311 90.6547 124.9 90.2441C124.764 90.1067 124.673 89.9311 124.64 89.7408C124.607 89.5505 124.632 89.3545 124.713 89.179L125.622 87.179C125.709 86.9848 125.73 86.7672 125.681 86.56C125.631 86.3529 125.515 86.168 125.349 86.0341C124.438 85.289 123.478 84.6058 122.476 83.9891C122.3 83.8822 122.094 83.8356 121.889 83.8566C121.684 83.8775 121.491 83.9647 121.34 84.1051L119.68 85.626C119.54 85.755 119.365 85.8391 119.178 85.8676C118.99 85.8961 118.798 85.8677 118.626 85.7861C118.129 85.5447 117.623 85.3217 117.107 85.1171C116.929 85.0455 116.778 84.922 116.671 84.7626C116.565 84.6033 116.51 84.4155 116.512 84.2241L116.531 82.0101C116.532 81.7978 116.463 81.5911 116.334 81.4222C116.206 81.2533 116.025 81.1316 115.82 81.0761C114.678 80.7583 113.516 80.5188 112.341 80.359C112.136 80.3325 111.928 80.3737 111.748 80.4762C111.569 80.5787 111.427 80.737 111.346 80.927L110.455 82.9751C110.379 83.1518 110.251 83.3012 110.088 83.4037C109.925 83.5062 109.735 83.5569 109.543 83.5491C109.277 83.5381 109.009 83.5321 108.743 83.5321C108.477 83.5321 108.206 83.5381 107.943 83.5491C107.751 83.5569 107.561 83.5062 107.398 83.4037C107.235 83.3012 107.107 83.1518 107.031 82.9751L106.14 80.927C106.058 80.7361 105.916 80.5771 105.736 80.4745C105.555 80.372 105.346 80.3314 105.14 80.359C103.965 80.5188 102.803 80.7583 101.661 81.0761C101.456 81.1316 101.275 81.2533 101.147 81.4222C101.018 81.5911 100.949 81.7978 100.95 82.0101L100.969 84.2241C100.971 84.4155 100.916 84.6033 100.81 84.7626C100.703 84.922 100.552 85.0455 100.374 85.1171C99.858 85.3217 99.3517 85.5447 98.855 85.7861C98.6834 85.8677 98.4913 85.8961 98.3035 85.8676C98.1156 85.8391 97.9406 85.755 97.801 85.626L96.147 84.11C95.9958 83.9698 95.8031 83.8826 95.5979 83.8617C95.3928 83.8408 95.1864 83.8872 95.01 83.9941C94.0089 84.6099 93.0501 85.2921 92.14 86.0361C91.9744 86.17 91.8579 86.3549 91.8085 86.562C91.7591 86.7692 91.7797 86.9868 91.867 87.181L92.776 89.181C92.8569 89.3564 92.8825 89.5523 92.8493 89.7426C92.816 89.9329 92.7256 90.1085 92.59 90.246C92.18 90.656 91.786 91.0814 91.408 91.5221C91.2843 91.6643 91.121 91.7665 90.939 91.8156C90.757 91.8647 90.5645 91.8586 90.386 91.7981L88.243 91.081C88.044 91.015 87.829 91.0157 87.6304 91.083C87.4319 91.1504 87.2608 91.2806 87.143 91.4541C86.4888 92.3991 85.8975 93.3863 85.373 94.4091C85.2741 94.5991 85.2413 94.8168 85.2799 95.0276C85.3185 95.2384 85.4262 95.4303 85.586 95.5731L87.214 97.013C87.3594 97.1408 87.4624 97.3098 87.5093 97.4976C87.5561 97.6854 87.5445 97.883 87.476 98.0641C87.2513 98.642 87.0513 99.2307 86.876 99.83C86.8208 100.012 86.7125 100.173 86.565 100.294C86.4175 100.414 86.2375 100.487 86.048 100.504L83.808 100.72C83.5998 100.741 83.404 100.829 83.2502 100.971C83.0965 101.113 82.9932 101.301 82.956 101.507C82.7508 102.615 82.6172 103.736 82.556 104.861C82.5429 105.075 82.6015 105.287 82.7224 105.464C82.8434 105.641 83.0199 105.773 83.224 105.838L85.277 106.485C85.4661 106.544 85.6326 106.659 85.7542 106.815C85.8757 106.972 85.9465 107.161 85.957 107.359C85.985 108.022 86.041 108.677 86.125 109.326C86.151 109.516 86.1198 109.709 86.0354 109.881C85.951 110.053 85.8171 110.196 85.651 110.291L83.68 111.401C83.4982 111.505 83.3552 111.665 83.2727 111.858C83.1902 112.051 83.1728 112.265 83.223 112.468C83.4796 113.54 83.8039 114.595 84.194 115.626C84.2692 115.827 84.4091 115.997 84.5917 116.109C84.7742 116.221 84.989 116.269 85.202 116.246L87.356 116.001C87.5531 115.98 87.752 116.019 87.9256 116.115C88.0992 116.211 88.2391 116.358 88.326 116.536C88.6387 117.162 88.9787 117.771 89.346 118.364C89.4493 118.528 89.501 118.718 89.4944 118.912C89.4878 119.105 89.4232 119.292 89.309 119.448L87.979 121.248C87.8545 121.418 87.7889 121.623 87.7923 121.834C87.7958 122.044 87.868 122.248 87.998 122.413C88.6611 123.268 89.3765 124.08 90.14 124.846C90.29 124.999 90.4866 125.097 90.6987 125.125C90.9108 125.153 91.1263 125.11 91.311 125.002L93.181 123.902C93.3482 123.802 93.542 123.756 93.7361 123.771C93.9303 123.785 94.1153 123.859 94.266 123.982C94.8427 124.456 95.4427 124.902 96.066 125.319C96.225 125.426 96.3477 125.579 96.4179 125.758C96.488 125.937 96.5024 126.132 96.459 126.319L95.978 128.49C95.9329 128.696 95.9569 128.911 96.0461 129.103C96.1354 129.294 96.285 129.45 96.472 129.548C97.4144 130.048 98.3866 130.489 99.383 130.87C99.5819 130.947 99.8007 130.956 100.005 130.896C100.21 130.835 100.388 130.708 100.513 130.535L101.781 128.757C101.893 128.599 102.05 128.479 102.232 128.413C102.413 128.347 102.611 128.338 102.798 128.387C103.54 128.586 104.291 128.747 105.049 128.869C105.239 128.901 105.415 128.99 105.553 129.125C105.691 129.259 105.785 129.432 105.823 129.621L106.262 131.778C106.304 131.985 106.414 132.171 106.573 132.31C106.732 132.448 106.933 132.53 107.143 132.543C107.672 132.577 108.205 132.596 108.743 132.596C109.281 132.596 109.813 132.577 110.343 132.543C110.553 132.53 110.754 132.448 110.913 132.31C111.072 132.171 111.182 131.985 111.224 131.778L111.663 129.621C111.701 129.432 111.795 129.259 111.933 129.125C112.071 128.99 112.247 128.901 112.437 128.869C113.195 128.747 113.946 128.586 114.688 128.387C114.875 128.338 115.073 128.347 115.254 128.413C115.436 128.479 115.593 128.599 115.705 128.757L116.973 130.535C117.098 130.708 117.276 130.835 117.481 130.896C117.685 130.956 117.904 130.947 118.103 130.87C119.1 130.485 120.073 130.04 121.015 129.536C121.202 129.438 121.351 129.282 121.44 129.09C121.529 128.899 121.553 128.684 121.508 128.478L121.027 126.307C120.984 126.12 120.998 125.925 121.069 125.746C121.139 125.568 121.261 125.415 121.42 125.307C122.042 124.89 122.642 124.444 123.22 123.97C123.371 123.847 123.556 123.773 123.75 123.759C123.944 123.744 124.138 123.79 124.305 123.89L126.175 124.99C126.36 125.098 126.575 125.141 126.787 125.113C126.999 125.085 127.196 124.987 127.346 124.834C128.11 124.068 128.825 123.256 129.488 122.401C129.618 122.236 129.69 122.032 129.694 121.822C129.697 121.611 129.632 121.406 129.507 121.236L128.177 119.436C128.063 119.28 127.998 119.093 127.992 118.9C127.985 118.706 128.037 118.516 128.14 118.352C128.507 117.76 128.847 117.151 129.16 116.524C129.247 116.346 129.387 116.199 129.56 116.103C129.734 116.007 129.933 115.968 130.13 115.989L132.284 116.234C132.497 116.257 132.712 116.209 132.894 116.097C133.077 115.985 133.217 115.815 133.292 115.614C133.682 114.583 134.006 113.528 134.263 112.456C134.313 112.253 134.296 112.039 134.213 111.846C134.131 111.653 133.988 111.493 133.806 111.389L131.839 110.277C131.673 110.182 131.539 110.039 131.455 109.867C131.371 109.695 131.34 109.502 131.366 109.312C131.449 108.664 131.505 108.008 131.534 107.345C131.546 107.15 131.618 106.962 131.739 106.809C131.86 106.655 132.025 106.541 132.212 106.483ZM108.744 121.447C105.782 121.447 102.886 120.569 100.423 118.923C97.9596 117.277 96.0398 114.938 94.9061 112.201C93.7725 109.464 93.4759 106.452 94.0538 103.547C94.6317 100.642 96.0583 97.9727 98.153 95.878C100.248 93.7833 102.916 92.3568 105.822 91.7788C108.727 91.2009 111.739 91.4975 114.476 92.6312C117.213 93.7648 119.552 95.6846 121.198 98.1477C122.844 100.611 123.722 103.507 123.722 106.469C123.722 110.441 122.144 114.251 119.335 117.06C116.526 119.869 112.716 121.447 108.744 121.447Z" fill="#D5F1FA"/>
<path id="Vector_70" d="M132.212 106.483L134.265 105.836C134.469 105.771 134.646 105.639 134.767 105.462C134.888 105.285 134.946 105.073 134.933 104.859C134.872 103.734 134.738 102.613 134.533 101.505C134.496 101.299 134.393 101.111 134.239 100.969C134.085 100.827 133.889 100.739 133.681 100.718L131.441 100.502C131.252 100.485 131.072 100.412 130.924 100.292C130.777 100.171 130.668 100.01 130.613 99.8281C130.435 99.2281 130.235 98.6394 130.013 98.0621C129.945 97.881 129.933 97.6834 129.98 97.4956C130.027 97.3078 130.13 97.1388 130.275 97.011L131.903 95.5711C132.063 95.4283 132.171 95.2364 132.209 95.0256C132.248 94.8148 132.215 94.5971 132.116 94.4071C131.592 93.3843 131 92.3971 130.346 91.4521C130.228 91.2786 130.057 91.1484 129.859 91.081C129.66 91.0137 129.445 91.013 129.246 91.0791L127.103 91.7961C126.924 91.8566 126.732 91.8627 126.55 91.8136C126.368 91.7644 126.205 91.6623 126.081 91.5201C125.704 91.0801 125.311 90.6547 124.9 90.2441C124.764 90.1067 124.673 89.9311 124.64 89.7408C124.607 89.5505 124.632 89.3545 124.713 89.179L125.622 87.179C125.709 86.9848 125.73 86.7672 125.681 86.56C125.631 86.3529 125.515 86.168 125.349 86.0341C124.438 85.289 123.478 84.6058 122.476 83.9891C122.3 83.8822 122.094 83.8356 121.889 83.8566C121.684 83.8775 121.491 83.9647 121.34 84.1051L119.68 85.626C119.54 85.755 119.365 85.8391 119.178 85.8676C118.99 85.8961 118.798 85.8677 118.626 85.7861C118.129 85.5447 117.623 85.3217 117.107 85.1171C116.929 85.0455 116.778 84.922 116.671 84.7626C116.565 84.6033 116.51 84.4155 116.512 84.2241L116.531 82.0101C116.532 81.7978 116.463 81.5911 116.334 81.4222C116.206 81.2533 116.025 81.1316 115.82 81.0761C114.678 80.7583 113.516 80.5188 112.341 80.359C112.136 80.3325 111.928 80.3737 111.748 80.4762C111.569 80.5787 111.427 80.737 111.346 80.927L110.455 82.9751C110.379 83.1518 110.251 83.3012 110.088 83.4037C109.925 83.5062 109.735 83.5569 109.543 83.5491C109.277 83.5381 109.009 83.5321 108.743 83.5321C108.477 83.5321 108.206 83.5381 107.943 83.5491C107.751 83.5569 107.561 83.5062 107.398 83.4037C107.235 83.3012 107.107 83.1518 107.031 82.9751L106.14 80.927C106.058 80.7361 105.916 80.5771 105.736 80.4745C105.555 80.372 105.346 80.3314 105.14 80.359C103.965 80.5188 102.803 80.7583 101.661 81.0761C101.456 81.1316 101.275 81.2533 101.147 81.4222C101.018 81.5911 100.949 81.7978 100.95 82.0101L100.969 84.2241C100.971 84.4155 100.916 84.6033 100.81 84.7626C100.703 84.922 100.552 85.0455 100.374 85.1171C99.858 85.3217 99.3517 85.5447 98.855 85.7861C98.6834 85.8677 98.4913 85.8961 98.3035 85.8676C98.1156 85.8391 97.9406 85.755 97.801 85.626L96.147 84.11C95.9958 83.9698 95.8031 83.8826 95.5979 83.8617C95.3928 83.8408 95.1864 83.8872 95.01 83.9941C94.0089 84.6099 93.0501 85.2921 92.14 86.0361C91.9744 86.17 91.8579 86.3549 91.8085 86.562C91.7591 86.7692 91.7797 86.9868 91.867 87.181L92.776 89.181C92.8569 89.3564 92.8825 89.5523 92.8493 89.7426C92.816 89.9329 92.7256 90.1085 92.59 90.246C92.18 90.656 91.786 91.0814 91.408 91.5221C91.2843 91.6643 91.121 91.7665 90.939 91.8156C90.757 91.8647 90.5645 91.8586 90.386 91.7981L88.243 91.081C88.044 91.015 87.829 91.0157 87.6304 91.083C87.4319 91.1504 87.2608 91.2806 87.143 91.4541C86.4888 92.3991 85.8975 93.3863 85.373 94.4091C85.2741 94.5991 85.2413 94.8168 85.2799 95.0276C85.3185 95.2384 85.4262 95.4303 85.586 95.5731L87.214 97.013C87.3594 97.1408 87.4624 97.3098 87.5093 97.4976C87.5561 97.6854 87.5445 97.883 87.476 98.0641C87.2513 98.6421 87.0513 99.2307 86.876 99.83C86.8208 100.012 86.7125 100.173 86.565 100.294C86.4175 100.414 86.2375 100.487 86.048 100.504L83.808 100.72C83.5998 100.741 83.404 100.829 83.2502 100.971C83.0965 101.113 82.9932 101.301 82.956 101.507C82.7508 102.615 82.6172 103.736 82.556 104.861C82.5429 105.075 82.6015 105.287 82.7224 105.464C82.8434 105.641 83.0199 105.773 83.224 105.838L85.277 106.485C85.4661 106.544 85.6326 106.659 85.7542 106.815C85.8757 106.972 85.9465 107.161 85.957 107.359C85.985 108.022 86.041 108.677 86.125 109.326C86.151 109.516 86.1198 109.709 86.0354 109.881C85.951 110.053 85.8171 110.196 85.651 110.291L83.68 111.401C83.4982 111.505 83.3552 111.665 83.2727 111.858C83.1902 112.051 83.1728 112.265 83.223 112.468C83.4796 113.54 83.8039 114.595 84.194 115.626C84.2692 115.827 84.4091 115.997 84.5917 116.109C84.7742 116.221 84.989 116.269 85.202 116.246L87.356 116.001C87.5531 115.98 87.752 116.019 87.9256 116.115C88.0992 116.211 88.2391 116.358 88.326 116.536C88.6387 117.162 88.9787 117.771 89.346 118.364C89.4493 118.528 89.501 118.718 89.4944 118.912C89.4878 119.105 89.4232 119.292 89.309 119.448L87.979 121.248C87.8545 121.418 87.7889 121.623 87.7923 121.834C87.7958 122.044 87.868 122.248 87.998 122.413C88.6611 123.268 89.3765 124.08 90.14 124.846C90.29 124.999 90.4866 125.097 90.6987 125.125C90.9108 125.153 91.1263 125.11 91.311 125.002L93.181 123.902C93.3482 123.802 93.542 123.756 93.7361 123.771C93.9303 123.785 94.1153 123.859 94.266 123.982C94.8427 124.456 95.4427 124.902 96.066 125.319C96.225 125.426 96.3477 125.579 96.4179 125.758C96.488 125.937 96.5024 126.132 96.459 126.319L95.978 128.49C95.9329 128.696 95.9569 128.911 96.0461 129.103C96.1354 129.294 96.285 129.45 96.472 129.548C97.4144 130.048 98.3866 130.489 99.383 130.87C99.5819 130.947 99.8007 130.956 100.005 130.896C100.21 130.835 100.388 130.708 100.513 130.535L101.781 128.757C101.893 128.599 102.05 128.479 102.232 128.413C102.413 128.347 102.611 128.338 102.798 128.387C103.54 128.586 104.291 128.747 105.049 128.869C105.239 128.901 105.415 128.99 105.553 129.125C105.691 129.259 105.785 129.432 105.823 129.621L106.262 131.778C106.304 131.985 106.414 132.171 106.573 132.31C106.732 132.448 106.933 132.53 107.143 132.543C107.672 132.577 108.205 132.596 108.743 132.596C109.281 132.596 109.813 132.577 110.343 132.543C110.553 132.53 110.754 132.448 110.913 132.31C111.072 132.171 111.182 131.985 111.224 131.778L111.663 129.621C111.701 129.432 111.795 129.259 111.933 129.125C112.071 128.99 112.247 128.901 112.437 128.869C113.195 128.747 113.946 128.586 114.688 128.387C114.875 128.338 115.073 128.347 115.254 128.413C115.436 128.479 115.593 128.599 115.705 128.757L116.973 130.535C117.098 130.708 117.276 130.835 117.481 130.896C117.685 130.956 117.904 130.947 118.103 130.87C119.1 130.485 120.073 130.04 121.015 129.536C121.202 129.438 121.351 129.282 121.44 129.09C121.529 128.899 121.553 128.684 121.508 128.478L121.027 126.307C120.984 126.12 120.998 125.925 121.069 125.746C121.139 125.568 121.261 125.415 121.42 125.307C122.042 124.89 122.642 124.444 123.22 123.97C123.371 123.847 123.556 123.773 123.75 123.759C123.944 123.744 124.138 123.79 124.305 123.89L126.175 124.99C126.36 125.098 126.575 125.141 126.787 125.113C126.999 125.085 127.196 124.987 127.346 124.834C128.11 124.068 128.825 123.256 129.488 122.401C129.618 122.236 129.69 122.032 129.694 121.822C129.697 121.611 129.632 121.406 129.507 121.236L128.177 119.436C128.063 119.28 127.998 119.093 127.992 118.9C127.985 118.706 128.037 118.516 128.14 118.352C128.507 117.76 128.847 117.151 129.16 116.524C129.247 116.346 129.387 116.199 129.56 116.103C129.734 116.007 129.933 115.968 130.13 115.989L132.284 116.234C132.497 116.257 132.712 116.209 132.894 116.097C133.077 115.985 133.217 115.815 133.292 115.614C133.682 114.583 134.006 113.528 134.263 112.456C134.313 112.253 134.296 112.039 134.213 111.846C134.131 111.653 133.988 111.493 133.806 111.389L131.839 110.277C131.673 110.182 131.539 110.039 131.455 109.867C131.371 109.695 131.34 109.502 131.366 109.312C131.449 108.664 131.505 108.008 131.534 107.345C131.546 107.15 131.618 106.962 131.739 106.809C131.86 106.655 132.025 106.541 132.212 106.483V106.483ZM108.744 121.447C105.782 121.447 102.886 120.569 100.423 118.923C97.9596 117.277 96.0398 114.938 94.9061 112.201C93.7725 109.464 93.4759 106.452 94.0538 103.547C94.6317 100.642 96.0582 97.9727 98.153 95.878C100.248 93.7833 102.916 92.3568 105.822 91.7788C108.727 91.2009 111.739 91.4975 114.476 92.6312C117.213 93.7648 119.552 95.6846 121.198 98.1477C122.844 100.611 123.722 103.507 123.722 106.469C123.722 110.441 122.144 114.251 119.335 117.06C116.526 119.869 112.716 121.447 108.744 121.447V121.447Z" stroke="#0072BC" stroke-miterlimit="10"/>
<path id="Vector_71" d="M381.08 162.83V168.545C381.072 169.121 381.186 169.693 381.413 170.222C381.64 170.752 381.977 171.228 382.4 171.619C389.2 177.703 397.08 172.99 397.08 166.437V162.83C397.08 162.748 397.101 162.667 397.141 162.595C397.18 162.522 397.237 162.461 397.307 162.417C403.931 158.144 407.024 148.868 401.218 139.927C400.597 138.969 399.784 138.152 398.829 137.527C386.683 129.602 373.88 138.127 373.88 149.64C373.879 152.184 374.517 154.687 375.735 156.92C376.953 159.153 378.713 161.044 380.853 162.42C380.922 162.464 380.979 162.525 381.018 162.596C381.058 162.668 381.079 162.748 381.08 162.83Z" stroke="#0072BC" stroke-miterlimit="10"/>
<path id="Vector_72" d="M381.58 168.036H396.58" stroke="#0072BC" stroke-miterlimit="10"/>
<path id="Vector_73" d="M381.58 171.036H395.58" stroke="#0072BC" stroke-miterlimit="10"/>
<path id="Vector_74" d="M383.98 152.725C386.894 153.901 390.151 153.901 393.066 152.725" stroke="#0072BC" stroke-miterlimit="10"/>
<path id="Vector_75" d="M389.08 153.536V167.536" stroke="#0072BC" stroke-miterlimit="10"/>
<path id="Vector_76" d="M394.32 145.701L390.994 149.028" stroke="#0072BC" stroke-miterlimit="10"/>
<path id="Vector_77" d="M383.63 145.701L386.957 149.028" stroke="#0072BC" stroke-miterlimit="10"/>
<path id="Vector_78" d="M389.08 143.536V148.536" stroke="#0072BC" stroke-miterlimit="10"/>
<path id="Vector_79" d="M203.58 26.0361H28.0801V108.036H75.0801" stroke="#0072BC" stroke-miterlimit="10"/>
<path id="Vector_80" d="M278.08 110.036H189.08V30.0361H107.08V67.0361" stroke="#0072BC" stroke-miterlimit="10"/>
<path id="Vector_81" d="M245.58 26.5361H277.58V62.5361H403.58V86.5361H339.58V109.536H299.58" stroke="#0072BC" stroke-width="2" stroke-miterlimit="10"/>
<path id="Vector_82" d="M264.51 98.0361H299.08V120.606C299.08 120.985 298.929 121.349 298.661 121.617C298.393 121.885 298.029 122.036 297.65 122.036H264.51C264.131 122.036 263.767 121.885 263.499 121.617C263.231 121.349 263.08 120.985 263.08 120.606V99.4661C263.08 99.0869 263.231 98.7231 263.499 98.455C263.767 98.1868 264.131 98.0361 264.51 98.0361Z" fill="#D5F1FA" stroke="#0072BC" stroke-miterlimit="10"/>
<path id="Vector_83" d="M299.08 98.0361H283.262L286.029 92.8081C286.149 92.5822 286.328 92.3933 286.547 92.2615C286.766 92.1297 287.017 92.0601 287.272 92.0601H297.672C298.045 92.0603 298.402 92.2085 298.666 92.4722C298.93 92.7358 299.078 93.0932 299.078 93.4661L299.08 98.0361Z" stroke="#0072BC" stroke-miterlimit="10"/>
<path id="Vector_84" d="M299.58 102.036H282.143L282.08 122.536" stroke="#0072BC" stroke-miterlimit="10"/>
<path id="Vector_85" d="M282.08 35.0361V55.0361" stroke="#0072BC" stroke-miterlimit="10"/>
<path id="Vector_86" d="M344.08 95.5361V110.536" stroke="#0072BC" stroke-miterlimit="10"/>
<path id="Vector_87" d="M468.08 34.5361V20.0361H453.58" stroke="#0072BC" stroke-miterlimit="10"/>
<path id="Vector_88" d="M232.58 26.5361H221.58" stroke="#0072BC" stroke-width="2" stroke-miterlimit="10"/>
<path id="Vector_89" d="M487.08 96.0361H481.08V111.036H487.08V96.0361Z" fill="#D5F1FA"/>
<path id="Vector_90" d="M452.58 111.036H481.162V105.536H452.58V111.036Z" fill="#D5F1FA"/>
<path id="Vector_91" d="M481.162 96.0361H452.58V101.536H481.162V96.0361Z" fill="#D5F1FA"/>
<path id="Vector_92" d="M431.58 105.536H452.892V101.536H431.58V105.536Z" fill="#D5F1FA"/>
<path id="Vector_93" d="M487.08 96.0361H431.08V111.036H487.08V96.0361Z" stroke="#0072BC" stroke-miterlimit="10"/>
<path id="Vector_94" d="M481.08 96.0361V101.036V111.036" stroke="#0072BC" stroke-miterlimit="10"/>
<path id="Vector_95" d="M453.08 96.0361V101.036V111.036" stroke="#0072BC" stroke-miterlimit="10"/>
<path id="Vector_96" d="M431.58 101.036H481.08" stroke="#0072BC" stroke-miterlimit="10"/>
<path id="Vector_97" d="M431.58 106.036H481.08" stroke="#0072BC" stroke-miterlimit="10"/>
</g>
</svg>
