<svg width="162" height="48" viewBox="0 0 162 48" fill="none" xmlns="http://www.w3.org/2000/svg">
<g id="spherical_logo">
<g id="spherical_text">
<path d="M125.041 14.2421C125.041 15.5602 123.989 16.6288 122.69 16.6288C121.392 16.6288 120.339 15.5602 120.339 14.2421C120.339 12.924 121.392 11.8555 122.69 11.8555C123.989 11.8555 125.041 12.924 125.041 14.2421Z" fill="#0072BC"/>
<path d="M58.8162 31.0408C61.5298 31.0408 64.042 29.7909 64.042 26.8583C64.042 23.8242 61.4866 23.1421 59.6624 22.6551C58.6495 22.3848 57.8619 22.1745 57.8619 21.6554C57.8619 21.1962 58.2632 20.9415 58.9168 20.9415C59.5359 20.9415 59.9715 21.1962 60.2998 21.6008C60.5066 21.8569 60.8721 21.9129 61.1602 21.7561L63.1224 20.6825C63.5071 20.4725 63.6175 19.9546 63.3416 19.6103C62.262 18.2595 60.6734 17.575 58.9168 17.575C56.3038 17.575 53.9927 18.9776 53.9927 21.7575C53.9927 24.5789 56.5198 25.2939 58.3421 25.8095C59.3694 26.1002 60.1729 26.3275 60.1729 26.8331C60.1729 27.3441 59.7207 27.624 58.8162 27.624C57.9571 27.624 57.3421 27.3007 56.9559 26.703C56.7574 26.395 56.3492 26.3096 56.0335 26.4916L54.0245 27.6534C53.6729 27.8564 53.5569 28.3211 53.7803 28.6626C54.8326 30.278 56.5865 31.0408 58.8162 31.0408Z" fill="#0072BC"/>
<path fill-rule="evenodd" clip-rule="evenodd" d="M79.5684 24.3079C79.5684 28.1083 76.8545 31.0408 73.5633 31.0408C71.8797 31.0408 70.6482 30.4543 69.8196 29.4843V35.0708C69.8196 35.4655 69.5052 35.7847 69.1163 35.7847H66.7542C66.3655 35.7847 66.0511 35.4655 66.0511 35.0708V18.6458C66.0511 18.2511 66.3655 17.9319 66.7542 17.9319H69.1163C69.5052 17.9319 69.8196 18.2511 69.8196 18.6458V19.1301C70.6482 18.1601 71.8797 17.5736 73.5633 17.5736C76.8545 17.575 79.5684 20.5075 79.5684 24.3079ZM75.7998 24.3079C75.7998 22.3958 74.5437 21.1962 72.8103 21.1962C71.0772 21.1962 69.8208 22.3944 69.8208 24.3079C69.8208 26.2214 71.0772 27.4196 72.8103 27.4196C74.5437 27.4196 75.7998 26.2214 75.7998 24.3079Z" fill="#0072BC"/>
<path d="M93.7627 29.9714V22.855C93.7627 19.4115 91.6018 17.575 89.0647 17.575C87.406 17.575 86.1499 18.1881 85.4715 19.1316V13.5451C85.4715 13.1503 85.157 12.8312 84.7681 12.8312H82.406C82.0174 12.8312 81.7029 13.1503 81.7029 13.5451V29.9714C81.7029 30.3662 82.0174 30.6853 82.406 30.6853H84.7681C85.157 30.6853 85.4715 30.3662 85.4715 29.9714V23.7228C85.4715 21.9115 86.427 21.0955 87.8086 21.0955C89.0137 21.0955 89.9942 21.8345 89.9942 23.4163V29.9714C89.9942 30.3662 90.3086 30.6853 90.6973 30.6853H93.0594C93.4483 30.6853 93.7627 30.3662 93.7627 29.9714Z" fill="#0072BC"/>
<path fill-rule="evenodd" clip-rule="evenodd" d="M102.731 27.624C103.557 27.624 104.286 27.3623 104.802 26.9689C105.031 26.794 105.335 26.7674 105.584 26.9129L107.434 27.9936C107.826 28.2217 107.913 28.7662 107.601 29.098C106.393 30.3844 104.732 31.0423 102.681 31.0423C98.3846 31.0423 95.722 28.1097 95.722 24.3094C95.722 20.509 98.4356 17.5764 102.405 17.5764C106.073 17.5764 108.787 20.4586 108.787 24.3094C108.787 24.8455 108.737 25.355 108.637 25.8393H99.7181C100.194 27.1649 101.349 27.624 102.731 27.624ZM105.042 22.9824C104.639 21.5028 103.51 20.9667 102.379 20.9667C100.947 20.9667 99.9925 21.6806 99.6407 22.9824H105.042Z" fill="#0072BC"/>
<path d="M118.457 21.2508V18.4555C118.457 18.0047 118.052 17.673 117.616 17.7542C116.316 17.9935 115.102 18.7956 114.689 20.2024V18.6472C114.689 18.2525 114.374 17.9333 113.985 17.9333H111.623C111.235 17.9333 110.92 18.2525 110.92 18.6472V29.9714C110.92 30.3662 111.235 30.6853 111.623 30.6853H113.985C114.374 30.6853 114.689 30.3662 114.689 29.9714V24.921C114.689 22.7528 116.319 21.9759 117.766 21.9619C118.15 21.9577 118.457 21.64 118.457 21.2508Z" fill="#0072BC"/>
<path d="M127.383 24.3079C127.383 20.5075 130.222 17.575 134.04 17.575C136.192 17.575 138.13 18.5898 139.296 20.18C139.544 20.5187 139.438 21.0045 139.078 21.2172L137 22.4406C136.708 22.6128 136.332 22.554 136.116 22.2909C135.631 21.6945 134.874 21.3502 133.989 21.3502C132.356 21.3502 131.15 22.5484 131.15 24.3093C131.15 26.0703 132.356 27.2685 133.989 27.2685C134.874 27.2685 135.645 26.9255 136.125 26.3306C136.337 26.0661 136.712 26.0059 137.004 26.1766L139.077 27.3818C139.438 27.5918 139.547 28.0761 139.3 28.4163C138.138 30.0274 136.216 31.0437 134.039 31.0437C130.222 31.0423 127.383 28.1083 127.383 24.3079Z" fill="#0072BC"/>
<path fill-rule="evenodd" clip-rule="evenodd" d="M153.159 30.6839C153.548 30.6839 153.863 30.3648 153.863 29.97V18.6459C153.863 18.2511 153.548 17.932 153.159 17.9348H150.797C150.409 17.9348 150.094 18.2539 150.094 18.6487V19.133C149.265 18.1629 148.034 17.5764 146.351 17.5764C143.059 17.5764 140.345 20.509 140.345 24.3094C140.345 28.1097 143.059 31.0423 146.351 31.0423C148.034 31.0423 149.265 30.4558 150.094 29.4857V29.97C150.094 30.3648 150.409 30.6839 150.797 30.6839H153.159ZM147.105 21.1963C148.838 21.1963 150.094 22.3959 150.094 24.308C150.094 26.2215 148.838 27.4196 147.105 27.4196C145.372 27.4196 144.115 26.2215 144.115 24.308C144.115 22.3945 145.372 21.1963 147.105 21.1963Z" fill="#0072BC"/>
<path d="M162 30.2738C162 30.7035 161.626 31.0465 161.207 30.9821C158.621 30.5915 156.632 28.3239 156.632 25.5929V13.5661C156.632 13.1713 156.946 12.8522 157.335 12.8522H159.716C160.105 12.8522 160.419 13.1713 160.419 13.5661V25.5929C160.419 26.304 160.879 26.9087 161.51 27.1173C161.8 27.2125 161.997 27.4854 161.997 27.7948V30.2738H162Z" fill="#0072BC"/>
<path d="M125.371 30.9821C125.79 31.0465 126.164 30.7035 126.164 30.2738H126.161V27.7948C126.161 27.4854 125.964 27.2125 125.674 27.1173C125.043 26.9087 124.584 26.304 124.584 25.5929V18.6151C124.584 18.2203 124.269 17.9012 123.88 17.9012H121.499C121.11 17.9012 120.796 18.2203 120.796 18.6151V25.5929C120.796 28.3239 122.785 30.5915 125.371 30.9821Z" fill="#0072BC"/>
</g>
<g id="sign">
<path d="M37.3017 40.4334C33.183 44.3458 27.8067 46.5 22.1629 46.5C20.0642 46.5 17.9725 46.1963 15.9469 45.5972C13.669 44.9239 11.7688 43.9664 10.2286 42.9628C9.40681 42.4267 8.72288 41.7394 8.25406 40.9723C7.84177 40.299 7.61426 39.6075 7.61426 39.0224C7.61426 38.2385 7.99483 37.8494 8.22097 37.6884C8.64842 37.3833 9.23997 37.3441 9.88942 37.5764C11.8392 38.1574 13.7875 38.4583 15.6808 38.4709C18.6385 38.4835 21.7658 37.8774 25.2378 36.619C25.2489 36.6148 25.2613 36.6106 25.2737 36.6078C25.668 36.4874 26.13 36.3684 26.6264 36.3684C26.6774 36.3684 26.727 36.3698 26.7794 36.3726C27.342 36.4006 27.8343 36.6246 28.1542 36.7898C28.1776 36.8024 28.1997 36.815 28.2217 36.829C29.2132 37.4855 30.2446 38.1042 31.287 38.6683C32.2412 39.1834 33.6642 39.7979 35.021 39.7979C35.6388 39.7979 35.8966 39.6523 36.3779 39.2968C36.6895 39.0672 37.1225 39.1218 37.3679 39.4227C37.6106 39.7237 37.5816 40.166 37.3017 40.4334ZM30.5989 39.9715C29.5303 39.392 28.4741 38.7593 27.4578 38.0874C27.1503 37.932 26.9159 37.8564 26.7036 37.8466C26.3782 37.8298 26.0334 37.918 25.708 38.016C22.0816 39.329 18.8012 39.9603 15.6711 39.9477C13.6345 39.9337 11.5441 39.6103 9.45783 38.9874C9.44404 38.9832 9.43025 38.979 9.41646 38.9734C9.24135 38.909 9.13655 38.8712 9.09518 38.9076C9.07588 38.9244 9.06898 38.9678 9.06898 39.0224C9.06898 39.3976 9.31167 40.0792 9.91011 40.7665C9.91424 40.7707 9.91976 40.7749 9.92389 40.7791C10.4368 41.3348 11.1966 41.584 11.7206 41.584C12.1742 41.584 12.6375 41.43 13.1271 41.2663C13.7089 41.0717 14.3694 40.8519 15.1347 40.8519C16.0062 40.8519 17.0831 41.1459 18.4468 41.5168C20.4159 42.0529 22.8661 42.722 25.6239 42.722C28.7471 42.722 31.2567 42.2223 33.5291 41.1039C32.408 40.8561 31.367 40.3872 30.5989 39.9715Z" fill="#0072BC"/>
<path d="M27.5997 12.953C30.2748 12.953 32.7113 13.9202 34.4652 15.8323C35.1588 16.5882 34.9437 17.8102 34.0488 18.3001L31.542 19.6719C31.3158 19.7965 31.0704 19.8553 30.8277 19.8553C30.4099 19.8553 29.9976 19.6803 29.6915 19.3569C29.1758 18.811 28.507 18.4765 27.5997 18.4765C26.5283 18.4765 25.8678 18.895 25.8678 19.6481C25.8678 22.0333 36.0082 20.4432 36.0082 28.1853C36.0082 32.9978 31.8867 35.047 27.4342 35.047C23.9884 35.047 21.2334 33.9356 19.4836 31.591C18.9155 30.8309 19.1499 29.7335 19.9662 29.2618L22.5392 27.7752C22.786 27.6324 23.059 27.5624 23.3293 27.5624C23.7912 27.5624 24.2435 27.7654 24.5413 28.1559C25.1784 28.9916 26.1381 29.4395 27.4329 29.4395C28.9166 29.4395 29.6584 28.979 29.6584 28.1419C29.6584 25.8407 19.5181 27.0543 19.5181 19.8147C19.5208 15.2542 23.3128 12.953 27.5997 12.953Z" fill="#0072BC"/>
<path d="M41.4094 12.8368C40.6855 11.626 39.6113 11.1067 37.9249 11.1515C36.5502 11.1879 35.0761 11.64 33.7317 12.1341C33.3594 12.2713 33.3057 12.7822 33.6393 12.9964C33.7552 13.0706 33.8682 13.1461 33.9813 13.2245C34.2157 13.3883 34.5136 13.4303 34.7838 13.3393C35.8566 12.9782 37.0728 12.6254 38.1676 12.6254C39.0653 12.6254 39.6899 12.8102 40.1642 13.6025C41.9347 16.563 42.8696 20.159 42.8696 23.9986C42.8696 28.0999 41.8575 31.8276 39.9422 34.7797C39.6803 35.1828 38.9743 35.3788 37.7815 35.3788C36.8135 35.3788 35.8594 35.1044 34.9383 34.8063C34.6749 34.7209 34.3895 34.7629 34.1578 34.9183C34.0392 34.998 33.9165 35.075 33.7924 35.1506C33.4435 35.3606 33.4946 35.8883 33.8779 36.0241C35.1396 36.4706 36.4688 36.8597 37.7815 36.8597C38.9715 36.8597 40.4317 36.7156 41.1584 35.5958C43.2309 32.4015 44.3257 28.3911 44.3257 24.0014C44.3271 19.8889 43.3178 16.0283 41.4094 12.8368ZM20.5082 12.7136C17.2251 12.0739 13.7103 12.0389 10.3651 12.631C10.1528 12.2587 9.7253 11.7898 8.8759 11.5504C8.86901 11.549 8.86211 11.5462 8.85522 11.5448C8.44569 11.4426 8.03616 11.3768 7.63904 11.3124C7.5108 11.2914 6.43665 11.1529 5.97886 11.1529C5.1529 11.1515 3.90501 11.1501 3.20316 12.3427C1.10725 15.8463 0 19.8777 0 24.0014C0 28.1251 1.10725 32.1565 3.20316 35.6587C3.88295 36.8122 5.07155 36.8485 5.89612 36.8485C6.47526 36.8485 7.06818 36.7814 7.63904 36.689C8.03478 36.6246 8.44431 36.5588 8.85522 36.4566C8.86211 36.4552 8.86901 36.4524 8.8759 36.451C9.52674 36.2676 9.92937 35.9499 10.1789 35.6433C11.6406 35.9037 13.167 36.0339 14.7541 36.0339C16.4805 36.0339 18.2772 35.8785 20.1373 35.5706C20.562 35.5006 20.6833 34.9421 20.3289 34.6929C20.1924 34.5963 20.0587 34.4969 19.9277 34.3947C19.7346 34.2436 19.4878 34.1792 19.2465 34.2142C17.6773 34.4437 16.1592 34.5585 14.6976 34.5557C13.2952 34.5529 11.9439 34.4423 10.6478 34.2254C10.645 33.9664 10.6078 33.6935 10.5319 33.4051C9.66187 30.0862 9.35851 27.6254 9.37368 24.0028V23.9972C9.35851 20.3746 9.66187 17.9152 10.5333 14.5977C10.5802 14.4213 10.6119 14.2506 10.6298 14.0854C12.1383 13.8194 13.6813 13.6865 15.2202 13.6865C16.7149 13.6865 18.2055 13.811 19.6533 14.0588C19.9318 14.1064 20.2159 14.0196 20.4241 13.825C20.5206 13.7355 20.6213 13.6473 20.7219 13.5619C21.0336 13.2987 20.9053 12.7906 20.5082 12.7136Z" fill="#0072BC"/>
<path d="M37.3017 7.56663C33.183 3.65426 27.8067 1.5 22.1629 1.5C20.0642 1.5 17.9725 1.80375 15.9469 2.40286C13.669 3.07615 11.7688 4.03359 10.2286 5.03723C9.40543 5.57335 8.72288 6.26204 8.25268 7.02912C7.8404 7.70101 7.61426 8.3939 7.61426 8.979C7.61426 9.76288 7.99483 10.152 8.22097 10.313C8.64842 10.6181 9.23997 10.6573 9.88942 10.425C11.8392 9.84407 13.7875 9.54311 15.6808 9.53051C18.6385 9.51792 21.7658 10.124 25.2378 11.3824C25.2489 11.3866 25.2613 11.3908 25.2737 11.3936C25.668 11.514 26.13 11.633 26.6264 11.633C26.6774 11.633 26.727 11.6316 26.7794 11.6288C27.342 11.6008 27.8343 11.3768 28.1542 11.2116C28.1776 11.199 28.1997 11.1865 28.2217 11.1725C29.2132 10.516 30.2446 9.89726 31.287 9.33315C32.2412 8.81803 33.6642 8.20353 35.021 8.20353C35.6388 8.20353 35.8966 8.3491 36.3779 8.70465C36.6895 8.93421 37.1225 8.87962 37.3679 8.57867C37.6106 8.27632 37.5816 7.83399 37.3017 7.56663ZM30.5989 8.02856C29.5303 8.60806 28.4741 9.24076 27.4578 9.91265C27.1503 10.068 26.9159 10.1436 26.7036 10.1534C26.3782 10.1702 26.0334 10.082 25.708 9.98404C22.0816 8.67105 18.8012 8.03975 15.6711 8.05235C13.6345 8.06635 11.5441 8.3897 9.45783 9.0126C9.44404 9.0168 9.43025 9.021 9.41646 9.0266C9.24135 9.09099 9.13655 9.12878 9.09518 9.09238C9.07588 9.07559 9.07036 9.03359 9.07036 8.979C9.07036 8.60386 9.31305 7.92217 9.91149 7.23488C9.91562 7.22928 9.91976 7.22508 9.92527 7.22088C10.4382 6.66517 11.198 6.41601 11.722 6.41601C12.1756 6.41601 12.6389 6.56999 13.1284 6.73376C13.7103 6.92833 14.3708 7.1481 15.1361 7.1481C16.0075 7.1481 17.0845 6.85414 18.4482 6.4832C20.4172 5.94709 22.8675 5.278 25.6253 5.278C28.7485 5.278 31.258 5.77772 33.5305 6.89614C32.408 7.1439 31.367 7.61282 30.5989 8.02856Z" fill="#0072BC"/>
</g>
</g>
</svg>
